<?xml version="1.0" encoding="utf-8"?>
<!DOCTYPE svg PUBLIC "-//W3C//DTD SVG 1.1//EN" "http://www.w3.org/Graphics/SVG/1.1/DTD/svg11.dtd">
<svg version="1.1" xmlns="http://www.w3.org/2000/svg" width="396px" height="226px" viewBox="0 0 396 226" preserveAspectRatio="xMidYMid meet">
 <g fill="#ffffff">
  <path d="M283.48 154.07 c-0.71 -0.88 -0.71 -0.94 -0.32 -3.42 0.35 -2.15 0.50 -2.56 1.09 -2.83 0.85 -0.38 0.85 -0.85 0.09 -4.71 -0.77 -3.86 -0.97 -4.33 -1.92 -4.33 -0.88 0 -1.92 -1.80 -1.92 -3.39 l0 -1.06 3.15 0.09 3.15 0.09 0.56 0.94 c1.41 2.42 6.39 16 6.39 17.41 l0 1.12 -3.89 0.50 c-5.24 0.68 -5.54 0.65 -6.39 -0.41z"/>
  <path d="M295.59 151.68 c-2.65 -6.69 -4.48 -11.96 -4.48 -12.82 0 -1 0 -1 1.27 -0.91 1.03 0.09 1.30 0.24 1.68 0.97 0.38 0.80 0.56 0.88 1.56 0.80 0.91 -0.09 1.68 0.21 4.07 1.53 2.21 1.24 3.21 1.65 4.13 1.65 0.94 0 2.53 0.68 7.22 3.03 5.95 2.98 6.01 3.01 6.01 3.95 0 1.18 0.65 1 -8.57 2.15 -8.04 0.97 -9.28 1.06 -9.49 0.53 -0.09 -0.24 -0.18 -0.18 -0.18 0.15 -0.03 0.38 -0.29 0.50 -1.33 0.50 -1.27 0 -1.30 0 -1.89 -1.53z"/>
  <path d="M314.15 145.73 c-6.66 -3.33 -8.60 -4.42 -8.60 -4.83 0 -0.80 -0.65 -1.30 -4.04 -2.98 -2.98 -1.47 -3.03 -1.53 -3.03 -2.53 l0 -1.03 12.14 0.06 12.17 0.09 0.94 5.75 c0.50 3.15 0.97 6.60 1.03 7.66 l0.09 1.92 -1.06 0.09 c-0.85 0.06 -2.59 -0.68 -9.63 -4.18z"/>
  <path d="M98.56 103.36 c-0.68 -2.03 -1.62 -6.25 -1.62 -7.22 0 -1.18 0.06 -1.24 0.97 -1.38 2.39 -0.38 20.01 -1.68 21.72 -1.59 l1.92 0.09 0.09 5.24 0.06 5.22 -11.49 0 c-8.96 0 -11.55 -0.09 -11.64 -0.35z"/>
  <path d="M124.93 98.15 l0 -5.60 1.56 -0.15 c3.77 -0.44 12.20 -1.06 14.08 -1.06 l2.03 0 0 6.19 0 6.19 -8.84 0 -8.84 0 0 -5.57z"/>
  <path d="M145.85 97.41 c0 -3.89 0.12 -6.39 0.29 -6.51 0.47 -0.29 15.47 -1.44 16 -1.24 0.44 0.18 0.50 0.91 0.50 7.13 l0 6.92 -8.40 0 -8.40 0 0 -6.31z"/>
  <path d="M165.88 96.50 c0 -5.54 0.09 -7.28 0.38 -7.37 0.47 -0.18 15.20 -1.38 17.30 -1.44 l1.62 -0.03 0.09 8.04 0.06 8.01 -9.72 0 -9.72 0 0 -7.22z"/>
  <path d="M188.57 95.49 l0 -8.22 0.68 -0.18 c0.35 -0.09 1.15 -0.18 1.77 -0.18 l1.09 0 0 8.40 0 8.40 -1.77 0 -1.77 0 0 -8.22z"/>
  <path d="M269.10 93.02 c-0.32 -0.47 -2.06 -1.77 -3.27 -2.39 -0.53 -0.27 -1.09 -0.82 -1.24 -1.21 -0.15 -0.41 -0.47 -0.74 -0.71 -0.74 -0.29 0 -1.33 -1.71 -2.68 -4.42 -1.94 -3.80 -2.36 -4.42 -2.95 -4.42 -0.59 0 -0.77 -0.29 -1.30 -1.83 -1 -2.98 -0.91 -3.45 1.38 -5.95 1.09 -1.21 2.21 -2.59 2.50 -3.09 0.53 -0.88 0.53 -0.91 -0.03 -0.91 -0.59 0 -2.24 1.18 -5.04 3.51 -2.18 1.86 -8.28 8.84 -8.28 9.52 0 0.91 0.68 0.59 3.09 -1.53 2.95 -2.59 3.71 -2.71 4.95 -0.77 0.80 1.27 1.06 2.92 0.53 3.27 -0.18 0.09 0.82 1.77 2.21 3.74 2.77 4.01 3.09 5.13 1.74 6.01 -0.41 0.27 -0.74 0.68 -0.74 0.88 0 0.65 -1.53 0.50 -3.92 -0.35 -1.15 -0.41 -4.21 -1.47 -6.75 -2.39 l-4.66 -1.62 0 -4.98 c0 -4.66 0.03 -4.98 0.56 -4.98 1.03 0 2.09 -1.12 2.09 -2.24 0 -1.24 -0.68 -2.62 -1.44 -3.06 -0.88 -0.44 -4.18 -0.35 -11.90 0.32 -3.86 0.35 -7.07 0.59 -7.13 0.53 -0.03 -0.06 -0.24 -3.03 -0.41 -6.60 -0.41 -7.87 -1.15 -17.30 -1.53 -19.89 -0.15 -1.06 -0.35 -2.59 -0.47 -3.42 l-0.18 -1.53 4.24 -0.18 c5.80 -0.21 32.76 -0.77 32.88 -0.68 0.12 0.12 2.15 9.37 3.59 16.26 0.65 3.09 2.18 10.17 3.42 15.76 3.03 13.76 3.68 17.03 3.68 18.50 0 1.21 -0.03 1.24 -1.03 1.24 -0.53 0 -1.12 -0.18 -1.24 -0.38z"/>
 </g>
 <g fill="#aaaaaa">
  <path d="M93.73 172.48 c-0.35 -0.44 -0.62 -0.88 -0.62 -1 0 -0.12 -0.80 -0.38 -1.77 -0.56 -1.62 -0.32 -1.83 -0.29 -2.62 0.29 l-0.85 0.62 -4.21 -2.15 -4.24 -2.18 0 -1.06 c0 -0.80 -0.29 -1.41 -1.12 -2.42 -1 -1.21 -1.18 -1.33 -1.86 -1.09 -1.03 0.41 -1.41 -0.09 -3.77 -4.80 l-2.06 -4.04 0.62 -0.82 c0.53 -0.74 0.59 -1 0.32 -2.50 -0.27 -1.44 -0.44 -1.77 -1.15 -2.15 -0.47 -0.24 -0.85 -0.65 -0.85 -0.94 0 -1.18 1.50 -9.05 1.80 -9.40 0.21 -0.21 0.62 -0.38 0.97 -0.38 0.94 0 2.47 -3.15 1.97 -4.10 -0.21 -0.35 -0.24 -0.82 -0.12 -1.06 0.59 -1.03 6.10 -6.92 6.48 -6.92 0.24 0 0.68 0.15 0.97 0.29 0.74 0.41 3.83 -1.06 3.83 -1.80 0 -1.50 0.38 -1.68 6.16 -2.59 3.83 -0.65 4.54 -0.56 4.89 0.56 0.15 0.47 0.44 0.59 1.36 0.59 0.97 0 1.15 -0.09 1.15 -0.62 0 -0.35 0.41 -1 0.88 -1.44 l0.88 -0.82 -0.53 -1.44 -0.53 -1.41 -6.19 -0.09 -6.22 -0.06 -4.89 2.21 c-2.68 1.21 -5.07 2.21 -5.30 2.21 -0.82 0 -1.27 -1.12 -1.15 -2.71 0.09 -0.85 0.94 -0.65 0.94 0.21 0 0.88 0.62 1.21 1.38 0.77 0.47 -0.27 0.44 -0.29 -0.27 -0.32 l-0.82 0 -0.06 -7.72 c-0.03 -4.27 -0.09 -7.25 -0.15 -6.63 -0.09 0.68 -0.27 1.09 -0.53 1.09 -0.27 0 -0.47 -0.44 -0.59 -1.09 -0.29 -2 -0.62 -3.36 -3.36 -13.76 -1.47 -5.66 -2.68 -10.64 -2.68 -11.05 0.03 -0.53 1.94 -3.39 6.04 -9.02 8.37 -11.43 8.31 -11.34 9.16 -11.34 0.82 0 20.24 4.27 21.92 4.83 0.80 0.24 1.06 0.50 1.12 1.15 0.06 0.56 -0.03 0.80 -0.35 0.80 -0.35 0 -0.47 0.29 -0.47 1.18 0 0.85 0.12 1.18 0.44 1.18 0.24 0 0.44 0.21 0.44 0.44 0 0.24 0.27 0.59 0.59 0.80 0.71 0.44 0.80 1.86 0.12 2.12 -0.27 0.09 -0.80 0.18 -1.18 0.18 l-0.71 0 0 4.98 c0 4.80 -0.03 4.98 -0.74 5.95 -1.36 1.86 -1.47 2.21 -0.91 3.06 0.65 0.97 1.38 0.94 2.33 -0.15 0.88 -0.97 1.41 -1.09 1.94 -0.47 0.85 1 -1.41 3.12 -3.30 3.12 -2.92 -0.03 -4.07 -2.92 -2.27 -5.66 1 -1.50 1.03 -1.77 0.94 -6.92 l-0.06 -3.62 -1 0 c-0.56 0 -1.12 -0.15 -1.21 -0.29 -0.29 -0.47 0.15 -1.47 0.62 -1.47 0.24 0 0.41 -0.21 0.41 -0.44 0 -0.24 0.15 -0.44 0.29 -0.44 0.18 0 0.29 0.41 0.29 0.88 0 0.77 0.09 0.88 0.82 0.85 0.77 0 0.77 -0.03 0.15 -0.27 -0.53 -0.21 -0.68 -0.50 -0.68 -1.33 0 -0.71 -0.12 -1.03 -0.44 -1.03 -0.24 0 -0.44 -0.21 -0.44 -0.44 0 -0.62 -0.15 -0.59 -2.80 0.53 -1.30 0.56 -4.04 1.62 -6.10 2.42 -2.09 0.77 -3.77 1.56 -3.77 1.74 0 0.21 0.91 3.39 2.03 7.13 1.12 3.71 2.24 7.51 2.50 8.46 l0.50 1.74 1.09 -0.18 c0.59 -0.09 2.24 -0.24 3.68 -0.35 2.45 -0.18 2.56 -0.15 2.56 0.41 0 0.56 -0.24 0.59 -3.74 0.80 -2.09 0.09 -3.92 0.21 -4.10 0.24 -0.21 0.03 -0.12 0.82 0.29 2.27 0.47 1.74 0.62 2.03 0.77 1.47 0.15 -0.65 0.38 -0.77 1.77 -0.94 3.03 -0.35 4.71 -0.27 4.71 0.21 0 0.24 -0.03 0.44 -0.06 0.47 -0.06 0 -1.18 0.12 -2.53 0.24 -1.33 0.15 -2.50 0.32 -2.62 0.41 -0.09 0.12 0.21 1.68 0.68 3.48 0.62 2.45 1 3.33 1.38 3.45 0.80 0.21 0.62 0.94 -0.27 0.94 -0.41 0 -0.68 0.12 -0.56 0.29 0.12 0.21 17.59 0.29 51.42 0.29 l51.27 0 0.94 -0.85 0.97 -0.85 0 -20.60 c0.03 -14.38 -0.03 -17.38 -0.15 -9.96 l-0.15 10.61 -1.83 0.09 -1.86 0.09 0 -1.06 c0 -1.15 0.71 -1.47 0.97 -0.41 0.12 0.44 0.35 0.59 0.85 0.50 l0.68 -0.09 0.15 -24.07 c0.09 -13.23 0.27 -24.16 0.38 -24.31 0.29 -0.27 24.01 -0.50 25.49 -0.24 0.53 0.09 0.94 0.35 0.94 0.59 0 0.35 -1.30 0.44 -8.16 0.53 -6.81 0.06 -6.19 0.09 3.83 0.15 11.82 0.06 11.99 0.06 11.99 -0.53 0 -0.56 0.21 -0.59 3.33 -0.59 3.65 0 4.63 0.18 4.63 0.77 0 0.29 -0.77 0.41 -3.30 0.50 -2.42 0.06 -1.83 0.09 2.06 0.15 5.19 0.06 5.36 0.03 5.36 -0.53 0 -0.53 0.21 -0.59 2.59 -0.59 2.92 0 3.89 0.21 3.89 0.77 0 0.27 -0.59 0.41 -2.12 0.50 -1.65 0.06 -1.36 0.09 1.18 0.15 3.12 0.06 3.30 0.03 3.30 -0.53 0 -0.53 0.21 -0.59 1.89 -0.59 2.89 0 4.60 0.29 4.89 0.88 0.15 0.29 0.50 1.80 0.80 3.39 0.38 2.21 0.41 2.98 0.15 3.39 -0.27 0.44 0.21 3.03 2.59 13.61 5.92 26.55 8.66 38.42 11.96 51.80 1.86 7.51 3.30 13.85 3.24 14.05 -0.09 0.21 -0.44 0.38 -0.77 0.38 -1.03 0 -13.26 -4.54 -13.26 -4.92 0 -0.21 0.18 -0.41 0.38 -0.44 3.01 -0.35 -17.94 -0.47 -92.75 -0.44 -49.12 0.03 -86.36 0.12 -82.79 0.21 3.57 0.12 6.51 0.21 6.51 0.24 0.41 0.53 1 2.74 1 3.77 0 1.09 -0.15 1.47 -0.74 1.94 -0.41 0.32 -0.74 0.77 -0.74 1 0 0.24 -0.12 0.41 -0.29 0.41 -0.15 0 -0.29 0.21 -0.29 0.41 0 0.32 -0.44 0.47 -1.53 0.56 -1.15 0.06 -0.91 0.12 0.88 0.15 l2.45 0.06 0.44 -1.03 0.41 -1.03 4.57 0 4.57 0 0.18 0.74 c0.27 1.03 0.94 1.33 3.18 1.33 2.03 0 3.12 -0.59 3.12 -1.62 0 -0.38 0.71 -0.44 4.54 -0.44 4.30 0 4.57 0.03 4.74 0.59 0.38 1.21 0.97 1.47 3.24 1.47 2.27 0 2.86 -0.27 3.24 -1.47 0.18 -0.56 0.44 -0.59 4.71 -0.59 l4.51 0 0.29 0.85 c0.32 0.88 1.27 1.21 3.83 1.21 1.30 0 2.42 -0.74 2.42 -1.62 0 -0.38 0.71 -0.44 4.57 -0.44 l4.57 0 0.29 0.71 c0.38 1.03 1.18 1.36 3.21 1.36 2.18 0 2.59 -0.15 3.15 -1.21 l0.44 -0.85 4.39 0 c4.13 0 4.39 0.03 4.57 0.59 0.38 1.24 0.97 1.47 3.42 1.47 l2.33 0 0.50 -1.03 0.50 -1.03 4.51 0 4.51 0 0.18 0.77 c0.24 0.91 1.15 1.30 3.21 1.30 2 0 2.42 -0.18 2.98 -1.21 l0.44 -0.85 4.42 0 4.39 0 0.32 0.80 c0.41 1.15 0.74 1.27 3.15 1.27 1.74 0 2.24 -0.12 2.71 -0.59 0.32 -0.32 0.59 -0.80 0.59 -1.03 0 -0.38 0.71 -0.44 4.51 -0.44 l4.48 0 0.44 0.97 c0.44 0.91 0.50 0.94 2.50 1.03 2.68 0.12 3.24 -0.06 3.68 -1.12 l0.35 -0.88 4.54 0 c3.83 0 4.54 0.06 4.54 0.44 0 0.24 0.27 0.71 0.59 1.03 0.85 0.85 4.45 0.85 5.30 0 0.32 -0.32 0.59 -0.80 0.59 -1.03 0 -0.38 0.71 -0.44 4.57 -0.44 4.48 0 4.60 0.03 4.86 0.68 0.15 0.35 0.27 0.44 0.27 0.21 0.03 -0.68 -0.35 -1.12 -1.24 -1.44 -0.94 -0.38 -1.06 -1.41 -0.35 -3.80 0.44 -1.47 0.50 -1.53 1.47 -1.53 0.56 0 1.03 0.15 1.03 0.29 0 0.18 -0.18 0.29 -0.41 0.29 -0.38 0 -1.36 2.12 -1.36 2.98 0 0.27 0.32 0.62 0.77 0.80 0.41 0.21 0.88 0.77 1.06 1.24 0.29 0.85 0.35 0.88 2.18 0.88 1.74 0 1.92 -0.06 2.24 -0.74 0.41 -0.88 1.41 -1 1.41 -0.15 0 0.32 0.15 0.59 0.29 0.59 0.18 0 0.29 -0.27 0.29 -0.59 0 -0.74 0.24 -0.74 4.27 0.03 3.65 0.68 4.57 1.12 4.57 2.18 0 0.62 0.29 0.88 1.68 1.50 1.36 0.59 1.83 0.68 2.39 0.41 0.94 -0.41 1.38 -0.12 3.89 2.65 l2.12 2.36 9.55 0 c9.34 0 9.55 0 9.55 0.59 0 0.53 -0.21 0.59 -1.77 0.59 l-1.77 0 0 1.03 0 1.03 -1.92 0 -1.92 0 0 -1.03 c0 -0.97 -0.06 -1.03 -1.03 -1.03 -0.97 0 -1.03 0.06 -1.03 1 0 1.09 -0.35 1.36 -1.80 1.36 -0.91 0 -1.03 0.18 -0.56 0.88 0.24 0.38 0.29 0.35 0.29 -0.06 0 -0.41 0.24 -0.53 1.03 -0.53 1.15 0 1.62 0.59 1.62 2.03 0 0.82 -0.09 0.91 -0.88 0.91 -0.47 0 -0.88 0.06 -0.88 0.18 0 0.09 0.91 2.50 2.06 5.42 2.59 6.69 3.24 8.60 3.24 9.72 0 0.47 -0.06 0.88 -0.12 0.88 -0.06 0 -2.09 0.27 -4.48 0.59 -5.51 0.74 -5.30 0.74 -5.66 -0.21 -0.29 -0.80 -0.29 -0.80 -0.32 0.29 -0.03 0.62 -0.18 1.38 -0.35 1.74 -0.18 0.32 -0.24 0.65 -0.18 0.74 0.15 0.12 9.99 -1.12 32.06 -4.07 4.80 -0.62 9.46 -1.15 10.37 -1.15 l1.62 0 0.62 3.48 c0.35 1.89 0.71 3.92 0.82 4.48 0.09 0.71 0.62 1.50 1.62 2.53 1.18 1.21 1.44 1.68 1.36 2.36 l-0.09 0.82 -1.86 -1.74 -1.86 -1.77 -0.77 -4.42 c-0.41 -2.42 -0.85 -4.54 -0.97 -4.66 -0.12 -0.15 -2.65 0.09 -5.63 0.50 -2.98 0.41 -11.58 1.56 -19.12 2.53 -17.50 2.30 -17.77 2.33 -18.06 2.62 -0.15 0.15 -0.74 1.09 -1.33 2.12 -0.97 1.68 -1.21 1.92 -2.18 2.03 -1.38 0.18 -2.89 1.97 -2.89 3.42 0 0.88 -0.18 1.12 -1.38 1.89 -0.80 0.50 -2.77 1.59 -4.42 2.42 l-3.01 1.56 -0.74 -0.71 c-0.71 -0.65 -0.82 -0.68 -2.56 -0.35 -1 0.18 -1.86 0.35 -1.86 0.38 -0.03 0.06 -0.29 0.44 -0.56 0.91 -0.62 0.94 -1.68 1.09 -1.68 0.21 0 -0.56 -0.21 -0.59 -3.98 -0.59 -3.77 0 -3.98 0.03 -3.98 0.59 0 0.85 -0.44 0.74 -1.18 -0.29 -0.35 -0.47 -0.82 -0.88 -1.06 -0.88 -0.77 0 -0.41 -0.85 0.41 -0.97 0.44 -0.06 -0.38 -0.12 -1.86 -0.12 -1.44 0 -2.30 0.06 -1.83 0.12 0.82 0.12 1.15 0.97 0.38 0.97 -0.24 0 -0.62 0.35 -0.82 0.82 -0.50 1 -1.71 1.27 -1.71 0.38 0 -0.59 -0.15 -0.62 -3.83 -0.62 -3.62 0 -3.83 0.03 -3.83 0.59 0 0.91 -1.03 0.74 -1.77 -0.29 -0.35 -0.47 -0.82 -0.88 -1.06 -0.88 -0.85 0 -0.38 -0.85 0.56 -0.97 0.50 -0.06 -0.24 -0.12 -1.71 -0.12 -1.44 0 -2.30 0.06 -1.83 0.12 0.80 0.12 1.15 0.97 0.38 0.97 -0.24 0 -0.71 0.41 -1.06 0.88 -0.74 1.03 -1.77 1.21 -1.77 0.29 0 -0.56 -0.21 -0.59 -3.83 -0.59 -3.62 0 -3.83 0.03 -3.83 0.59 0 0.94 -1.09 0.74 -1.62 -0.29 -0.27 -0.47 -0.65 -0.88 -0.88 -0.88 -0.71 0 -0.50 -0.82 0.24 -0.97 0.35 -0.06 -0.47 -0.12 -1.86 -0.12 -1.38 0 -2.15 0.06 -1.68 0.12 0.82 0.12 1.15 0.97 0.35 0.97 -0.24 0 -0.62 0.41 -0.88 0.88 -0.53 1.03 -1.62 1.24 -1.62 0.29 0 -0.56 -0.21 -0.59 -3.83 -0.59 -3.68 0 -3.83 0.03 -3.83 0.62 0 0.82 -1.24 0.65 -1.62 -0.27 -0.15 -0.38 -0.59 -0.74 -0.94 -0.85 -1 -0.24 -0.82 -0.91 0.29 -1.06 0.50 -0.06 -0.27 -0.15 -1.77 -0.15 -1.53 -0.03 -2.77 0.06 -2.89 0.24 -0.12 0.18 0.21 0.29 0.71 0.29 0.50 0 0.91 0.15 0.91 0.29 0 0.18 -0.18 0.29 -0.35 0.29 -0.21 0 -0.62 0.41 -0.88 0.88 -0.59 1.03 -1.71 1.24 -1.71 0.29 0 -0.56 -0.21 -0.59 -3.83 -0.59 -3.62 0 -3.83 0.03 -3.83 0.59 0 0.91 -1.03 0.74 -1.77 -0.29 -0.35 -0.47 -0.82 -0.88 -1.06 -0.88 -0.77 0 -0.41 -0.85 0.41 -0.97 0.44 -0.06 -0.29 -0.15 -1.62 -0.18 -1.33 0 -2.50 0.09 -2.59 0.27 -0.12 0.18 0.15 0.29 0.56 0.29 0.41 0 0.77 0.15 0.77 0.29 0 0.18 -0.18 0.29 -0.35 0.29 -0.21 0 -0.62 0.41 -0.88 0.88 -0.59 1.03 -1.71 1.24 -1.71 0.29 0 -0.56 -0.21 -0.59 -3.83 -0.59 -3.62 0 -3.83 0.03 -3.83 0.59 0 0.94 -1.09 0.74 -1.62 -0.29 -0.27 -0.47 -0.65 -0.88 -0.88 -0.88 -0.71 0 -0.50 -0.82 0.24 -0.97 0.35 -0.06 -0.47 -0.12 -1.86 -0.12 -1.38 0 -2.15 0.06 -1.68 0.12 0.82 0.12 1.15 0.97 0.35 0.97 -0.24 0 -0.62 0.41 -0.88 0.88 -0.53 1.03 -1.62 1.24 -1.62 0.29 0 -0.56 -0.21 -0.59 -3.83 -0.59 -3.62 0 -3.83 0.03 -3.83 0.59 0 0.91 -1.03 0.74 -1.77 -0.29 -0.35 -0.47 -0.82 -0.88 -1.06 -0.88 -0.85 0 -0.38 -0.85 0.56 -0.97 0.50 -0.06 -0.32 -0.12 -1.86 -0.12 -1.53 0 -2.36 0.06 -1.83 0.12 0.91 0.12 1.38 0.97 0.53 0.97 -0.24 0 -0.71 0.41 -1.06 0.88 -0.74 1.03 -1.77 1.21 -1.77 0.29 0 -0.56 -0.21 -0.59 -3.83 -0.59 -3.62 0 -3.83 0.03 -3.83 0.59 0 0.94 -1.09 0.74 -1.62 -0.29 -0.27 -0.47 -0.65 -0.88 -0.88 -0.88 -0.71 0 -0.50 -0.82 0.24 -0.97 0.35 -0.06 -0.47 -0.12 -1.86 -0.12 -1.38 0 -2.15 0.06 -1.68 0.12 0.77 0.12 1.18 0.97 0.44 0.97 -0.18 0 -0.71 0.44 -1.15 0.97 -0.77 0.88 -0.82 0.91 -0.85 0.29 0 -0.68 -0.06 -0.68 -4.13 -0.68 -3.92 0 -4.13 0.03 -4.13 0.59 0 0.94 -1.12 0.74 -1.71 -0.29 -0.27 -0.47 -0.68 -0.88 -0.85 -0.88 -0.21 0 -0.38 -0.12 -0.38 -0.29 0 -0.15 0.35 -0.29 0.77 -0.29 0.41 0 0.68 -0.12 0.56 -0.29 -0.09 -0.15 -1.30 -0.29 -2.68 -0.29 -1.44 0 -2.47 0.12 -2.47 0.29 0 0.18 0.32 0.29 0.74 0.29 0.41 0 0.74 0.15 0.74 0.29 0 0.18 -0.18 0.29 -0.35 0.29 -0.21 0 -0.62 0.41 -0.88 0.88 -0.59 1.03 -1.71 1.24 -1.71 0.29 0 -0.56 -0.21 -0.59 -3.68 -0.59 -3.48 0 -3.68 0.03 -3.68 0.59 0 0.91 -1.03 0.74 -1.77 -0.29 -0.35 -0.47 -0.82 -0.88 -1.06 -0.88 -0.77 0 -0.41 -0.85 0.41 -0.97 0.44 -0.06 -0.35 -0.15 -1.77 -0.18 -1.44 0 -2.65 0.09 -2.74 0.27 -0.12 0.18 0.21 0.29 0.71 0.29 0.50 0 0.91 0.15 0.91 0.29 0 0.18 -0.18 0.29 -0.35 0.29 -0.21 0 -0.62 0.41 -0.88 0.88 -0.62 1.06 -2 1.27 -2 0.29 0 -0.56 -0.21 -0.59 -3.39 -0.59 -3.18 0 -3.39 0.03 -3.39 0.59 0 0.88 -1.30 0.77 -2.03 -0.18z m174.40 -1.89 c0.35 -0.24 0.32 -0.29 -0.21 -0.29 -0.38 0 -0.68 0.15 -0.68 0.29 0 0.38 0.32 0.38 0.88 0z m-177.73 -1.09 c-0.29 -0.06 -0.77 -0.06 -1.03 0 -0.29 0.09 -0.06 0.15 0.50 0.15 0.56 0 0.80 -0.06 0.53 -0.15z m185.01 -4.13 c-0.09 -0.29 -0.15 -0.06 -0.15 0.50 0 0.56 0.06 0.80 0.15 0.53 0.06 -0.29 0.06 -0.77 0 -1.03z m-194.76 -0.29 c-0.09 -0.29 -0.15 -0.06 -0.15 0.50 0 0.56 0.06 0.80 0.15 0.53 0.06 -0.29 0.06 -0.77 0 -1.03z m181.88 0.68 c4.01 -0.74 7.07 -2.50 10.37 -6.04 2.18 -2.27 4.27 -6.16 4.98 -9.16 1.21 -5.22 -0.94 -11.99 -5.27 -16.35 -2.30 -2.33 -4.33 -3.71 -7.07 -4.80 l-1.97 -0.80 -85.59 0 -85.59 0 -1.97 0.68 c-7.25 2.50 -12.99 10.22 -12.96 17.44 0 2.03 0.15 2.98 0.85 4.89 3.12 8.69 9.10 13.52 17.77 14.35 0.56 0.06 37.77 0.12 82.65 0.15 67.77 0.03 82 -0.03 83.83 -0.35z m-185.09 -4.21 c-0.29 -0.06 -0.77 -0.06 -1.03 0 -0.29 0.09 -0.06 0.15 0.50 0.15 0.56 0 0.80 -0.06 0.53 -0.15z m212.53 -8.07 c1.62 -0.21 2.92 -0.47 2.92 -0.59 0 -0.62 -5.30 -14.44 -6.25 -16.29 -0.32 -0.62 -0.82 -1.21 -1.15 -1.27 -0.82 -0.24 -0.71 -0.97 0.18 -0.97 0.65 0 0.74 -0.12 0.74 -1.03 l0 -1.03 -3.06 0 -3.03 0 -0.18 1.50 c-0.12 0.85 -0.06 1.74 0.09 2 0.21 0.35 0.27 0.21 0.29 -0.62 l0 -1.12 1.33 0 c1.12 0 1.33 0.09 1.33 0.59 0 0.47 -0.21 0.59 -0.88 0.59 -1.06 0 -1.06 0 -0.29 1.47 0.47 0.91 0.77 1.18 1.33 1.18 0.50 0 0.85 0.24 1.03 0.68 0.32 0.74 1.36 5.78 1.65 8.07 0.18 1.44 0.15 1.53 -0.65 1.94 -0.71 0.38 -0.91 0.74 -1.15 2.18 -0.29 1.53 -0.27 1.80 0.29 2.53 0.50 0.68 0.77 0.77 1.59 0.65 0.53 -0.06 2.30 -0.29 3.89 -0.47z m-216.98 -1.94 c-0.09 -0.29 -0.15 -0.06 -0.15 0.50 0 0.56 0.06 0.80 0.15 0.53 0.06 -0.29 0.06 -0.77 0 -1.03z m185.07 -27.40 c-0.62 -0.06 -1.68 -0.06 -2.36 0 -0.71 0.06 -0.21 0.12 1.09 0.12 1.30 0 1.86 -0.06 1.27 -0.12z m23.90 -4.57 c-0.03 -0.21 -0.15 -0.71 -0.27 -1.12 l-0.24 -0.74 -0.03 0.82 c-0.03 0.56 -0.18 0.80 -0.53 0.80 -0.44 0 -0.47 0.06 -0.09 0.29 0.62 0.41 1.18 0.35 1.15 -0.06z m-50.56 -9.58 c-2.33 -0.06 -6.10 -0.06 -8.40 0 -2.33 0.03 -0.44 0.09 4.18 0.09 4.63 0 6.51 -0.06 4.21 -0.09z m47.97 -0.88 c-0.15 -0.77 -0.18 -0.77 -0.27 -0.18 l-0.09 0.68 -15.97 0.09 -15.97 0.06 16.23 0.09 16.23 0.06 -0.18 -0.80z m-11.37 -4.54 c0.35 -0.35 0.41 -0.65 0.18 -1.21 -0.32 -0.85 -0.56 -0.94 -11.08 -4.66 -3.71 -1.30 -9.55 -3.36 -12.96 -4.57 -3.39 -1.21 -10.70 -3.80 -16.21 -5.75 l-10.02 -3.54 -0.74 0.53 -0.74 0.56 0 6.89 c0 6.60 0.03 6.95 0.71 8.43 0.38 0.85 1.27 2.09 1.97 2.74 l1.30 1.21 23.57 -0.09 c20.98 -0.09 23.60 -0.15 24.01 -0.56z m4.83 -7.60 l-0.06 -0.77 -0.12 0.82 c-0.09 0.62 -0.29 0.80 -0.91 0.82 -0.71 0 -0.74 0.03 -0.21 0.24 0.80 0.32 1.33 -0.15 1.30 -1.12z m-3.03 -8.60 c-0.41 -2 -1.74 -8.22 -2.98 -13.82 -1.24 -5.60 -2.77 -12.67 -3.42 -15.76 -1.33 -6.36 -3.48 -16.15 -3.59 -16.23 -0.09 -0.09 -26.08 0.47 -31.08 0.65 -3.71 0.15 -4.18 0.24 -4.07 0.68 0.53 1.68 1.41 11.67 1.97 22.57 0.18 3.57 0.35 6.51 0.35 6.51 0.03 0.03 2.71 -0.21 5.95 -0.50 6.57 -0.59 12.26 -0.71 13.14 -0.27 0.91 0.50 1.50 2 1.53 3.92 0 1.56 -0.09 1.86 -0.80 2.47 -0.44 0.35 -1.06 0.68 -1.38 0.68 -0.53 0 -0.56 0.24 -0.56 4.10 l0 4.07 5.10 1.80 c2.77 1 5.80 2.06 6.69 2.39 1.18 0.41 1.65 0.47 1.74 0.24 0.06 -0.21 0.41 -0.62 0.82 -0.94 l0.71 -0.59 -2.45 -3.51 c-1.36 -1.92 -2.56 -3.65 -2.74 -3.89 -0.21 -0.29 -0.15 -0.68 0.18 -1.27 0.47 -0.82 0.47 -0.88 -0.29 -2.06 l-0.82 -1.21 -1.74 1.56 c-2.59 2.33 -3.36 2.86 -4.13 2.86 -1.44 0 -2.09 -1.80 -1.12 -3.18 0.24 -0.35 0.41 -0.65 0.35 -0.65 -0.15 0 3.98 -4.51 6.10 -6.63 2.36 -2.39 5.83 -5.10 6.84 -5.33 0.38 -0.12 1 -0.09 1.41 0 0.59 0.15 0.74 0.38 0.74 1.18 0 1.12 -1.03 2.71 -3.45 5.27 -0.88 0.94 -1.56 1.86 -1.47 2.06 0.06 0.18 0.35 1.06 0.62 1.92 0.44 1.27 0.65 1.53 1.21 1.53 0.59 0 1 0.62 2.92 4.42 1.56 3.06 2.36 4.36 2.65 4.24 0.27 -0.09 0.50 0.18 0.71 0.74 0.18 0.53 0.71 1.09 1.30 1.38 1.27 0.65 2.98 1.92 3.30 2.47 0.56 0.88 0.47 -0.29 -0.24 -3.86z m-58.81 -25.46 l0 -28.76 -3.59 0.09 -3.62 0.09 0 3.77 -0.03 3.74 0.09 -3.68 0.12 -3.68 3.36 0 3.39 0 0 28.58 c0 15.73 0.06 28.58 0.15 28.58 0.09 0 0.15 -12.93 0.15 -28.73z m-106.28 3.68 c0.12 -0.44 0.41 -0.59 1.15 -0.62 0.77 0 0.85 -0.06 0.38 -0.24 -0.32 -0.12 -0.94 -0.32 -1.38 -0.44 -0.80 -0.18 -0.82 -0.15 -0.82 0.85 0 1.12 0.41 1.38 0.68 0.44z m99.12 -13.61 c-0.06 -0.53 -0.12 -0.12 -0.12 0.94 0 1.06 0.06 1.47 0.12 0.97 0.06 -0.53 0.06 -1.41 0 -1.92z m56.87 -11.90 c-0.27 -0.27 -43.46 -0.71 -44.55 -0.47 -0.47 0.12 6.33 0.27 15.17 0.35 8.84 0.09 19.09 0.18 22.81 0.24 3.71 0.03 6.69 -0.03 6.57 -0.12z m1.36 -5.92 c-0.53 -0.06 -1.41 -0.06 -1.92 0 -0.53 0.06 -0.12 0.12 0.94 0.12 1.06 0 1.47 -0.06 0.97 -0.12z"/>
  <path d="M93.55 163.08 c-2.65 -0.50 -4.27 -1.21 -6.48 -2.89 -2.83 -2.12 -4.68 -4.92 -5.57 -8.37 -0.62 -2.30 -0.62 -7.07 -0.03 -9.37 1.36 -5.19 5.42 -9.31 10.73 -10.87 1.86 -0.53 7.37 -0.62 9.46 -0.15 5.19 1.18 9.75 5.57 11.31 10.84 0.71 2.39 0.65 7.96 -0.12 10.40 -2.42 7.84 -10.31 12.08 -19.30 10.40z m7.37 -7.34 c1.94 -0.88 3.92 -2.80 4.89 -4.74 0.97 -2.03 1 -5.30 0.03 -7.25 -2 -4.10 -6.28 -6.66 -9.81 -5.89 -2.12 0.47 -3.68 1.36 -5.42 3.09 -5.16 5.13 -2.77 12.93 4.71 15.41 1.56 0.50 3.65 0.27 5.60 -0.62z"/>
  <path d="M94.52 154.86 c-3.71 -1 -5.80 -4.92 -4.95 -9.31 0.44 -2.42 1.62 -4.10 3.54 -5.16 1.44 -0.80 1.89 -0.88 4.13 -0.88 2.21 0 2.68 0.09 4.04 0.85 2.59 1.41 3.62 3.45 3.62 7.07 0 2.77 -0.50 4.21 -1.94 5.69 -1.97 1.97 -5.16 2.62 -8.43 1.74z"/>
  <path d="M255.40 163.23 c-5.75 -0.91 -10.40 -4.89 -12.38 -10.58 -0.91 -2.62 -0.97 -8.43 -0.12 -10.93 0.82 -2.47 2.36 -4.77 4.33 -6.60 3.18 -2.95 6.13 -4.01 11.11 -4.01 5.33 0 8.87 1.41 12.02 4.80 3.21 3.42 4.24 6.25 4.24 11.55 0 4.98 -1.03 7.81 -4.01 11.02 -1.89 2.03 -4.27 3.59 -6.57 4.27 -1.97 0.59 -6.39 0.82 -8.63 0.47z m6.48 -7.37 c2.06 -0.91 3.68 -2.42 4.80 -4.48 0.88 -1.65 1 -2.12 1 -4.07 0 -1.71 -0.15 -2.50 -0.68 -3.59 -1.68 -3.39 -5.27 -5.92 -8.40 -5.92 -3.42 0.03 -7.13 2.50 -8.78 5.86 -1.03 2.09 -0.97 5.01 0.12 7.10 1.06 2.03 2.36 3.48 3.98 4.42 2.80 1.65 5.27 1.86 7.96 0.68z"/>
  <path d="M256.34 155.01 c-3.74 -0.82 -5.75 -3.83 -5.57 -8.37 0.15 -3.18 1.09 -4.83 3.51 -6.22 1.44 -0.80 1.83 -0.88 4.13 -0.88 3.09 0.03 4.95 0.80 6.22 2.56 1.21 1.68 1.53 2.98 1.41 5.98 -0.12 2.47 -0.18 2.74 -1.15 4.07 -1.33 1.86 -3.12 2.80 -5.63 2.98 -1.03 0.06 -2.36 0 -2.92 -0.12z"/>
  <path d="M127.79 162.41 c-0.68 -0.71 -0.80 -1.09 -0.80 -2.62 0 -1.36 0.15 -1.97 0.62 -2.56 l0.59 -0.77 -7.84 0 -7.87 0 0.15 -1.24 c0.09 -0.71 0.53 -2.50 0.97 -3.98 l0.82 -2.74 1.33 0 c1.83 0 3.57 -0.32 3.57 -0.62 0 -0.15 -1.09 -0.27 -2.45 -0.27 l-2.42 0 -0.56 -2.71 c-0.29 -1.50 -0.62 -3.36 -0.68 -4.13 l-0.15 -1.41 12.20 -0.06 12.17 -0.09 0.09 -0.80 c0.09 -0.74 0.24 -0.82 1.12 -0.82 0.65 0 1 0.15 1 0.41 0 0.50 0.65 0.77 1.94 0.77 0.56 0 1 0.15 1 0.29 0 0.47 69.36 0.41 70.10 -0.06 0.44 -0.27 1.27 -0.27 3.62 0 1.86 0.24 7.54 0.35 14.76 0.35 l11.70 0 0 0.74 c0 0.41 -0.27 1.71 -0.59 2.86 -0.32 1.18 -0.59 2.50 -0.59 2.92 0 1.65 -0.15 1.74 -2.92 1.74 -2.30 0.03 -2.47 0.06 -1.97 0.44 0.38 0.29 1.30 0.44 2.74 0.44 1.77 0 2.15 0.09 2.15 0.47 0 0.27 0.41 1.65 0.88 3.12 1.36 4.04 1.41 3.95 -1.83 4.18 -1.47 0.09 -5.19 0.18 -8.25 0.18 l-5.57 0 0.59 0.77 c0.47 0.59 0.62 1.21 0.62 2.53 0 1.53 -0.09 1.86 -0.85 2.62 -0.80 0.77 -1.06 0.85 -2.86 0.85 -1.77 0 -2.09 -0.09 -2.83 -0.80 -0.74 -0.71 -0.82 -1 -0.82 -2.71 0 -1.56 0.12 -2.03 0.65 -2.59 l0.62 -0.68 -11.11 0 c-11.02 0 -11.14 0 -10.46 0.56 0.62 0.50 0.71 0.82 0.71 2.68 0 1.94 -0.06 2.18 -0.82 2.83 -0.71 0.59 -1.15 0.71 -2.86 0.71 -2.74 0 -3.57 -0.65 -3.77 -3.03 -0.09 -1.33 0 -1.86 0.47 -2.71 l0.62 -1.03 -17.83 0 -17.83 0 0.59 0.77 c0.47 0.59 0.62 1.21 0.62 2.56 0 1.53 -0.12 1.92 -0.80 2.62 -0.71 0.74 -0.97 0.82 -2.77 0.82 -1.71 0 -2.12 -0.12 -2.89 -0.77 -0.85 -0.71 -0.91 -0.88 -0.91 -2.80 0 -1.65 0.12 -2.15 0.59 -2.62 l0.59 -0.59 -10.49 0 -10.46 0 0.59 0.77 c0.94 1.21 0.88 3.89 -0.15 5.10 -0.71 0.85 -0.88 0.91 -2.89 0.91 -1.94 0 -2.21 -0.06 -2.92 -0.82z"/>
  <path d="M214.21 137.45 c-1.06 -0.21 -2 -0.38 -2.12 -0.41 -0.15 -0.03 -0.24 -0.56 -0.24 -1.21 0 -0.85 0.12 -1.18 0.44 -1.18 0.32 0 0.44 -0.38 0.44 -1.59 0 -2.33 0.32 -2.53 3.71 -2.53 l2.77 0 0.21 0.82 c0.12 0.44 0.24 1.68 0.24 2.77 0 3.51 -1.09 4.18 -5.45 3.33z"/>
  <path d="M140.63 137.39 c-0.21 -0.06 -0.38 -0.53 -0.38 -1 0 -0.47 -0.12 -0.85 -0.29 -0.85 -0.15 0 -0.29 0.41 -0.29 0.88 0 0.85 -0.03 0.88 -1.47 0.88 -1.33 0 -1.50 -0.09 -1.92 -0.88 -0.24 -0.47 -0.44 -1.27 -0.44 -1.77 0 -0.68 0.12 -0.88 0.59 -0.88 0.50 0 0.59 -0.21 0.59 -1.15 0 -1.68 0.56 -2.09 2.80 -2.09 1.27 0 2 0.15 2.33 0.44 0.24 0.24 0.82 0.44 1.30 0.44 0.80 0 0.91 0.12 1.09 1.18 0.27 1.56 -0.06 3.36 -0.80 4.27 -0.44 0.56 -0.82 0.74 -1.65 0.71 -0.59 0 -1.27 -0.09 -1.44 -0.18z"/>
  <path d="M350.33 171.78 c-4.13 -0.44 -9.05 -0.97 -10.90 -1.18 l-3.39 -0.38 -2.06 -2 -2.06 -2.03 1.03 0 c0.88 0 1.30 0.27 2.50 1.47 0.88 0.91 1.80 1.53 2.36 1.62 0.65 0.12 19.89 2.21 20.30 2.21 0.03 0 -0.18 -1.53 -0.44 -3.42 -0.41 -2.56 -0.68 -3.59 -1.15 -4.07 -0.35 -0.41 -0.59 -1.06 -0.59 -1.65 l0 -1.03 1.06 1.09 c1.06 1.03 1.12 1.21 1.77 5.30 0.38 2.30 0.65 4.39 0.56 4.60 -0.15 0.44 0.09 0.44 -8.99 -0.53z"/>
  <path d="M353.25 160.34 c-0.74 -0.77 -9.10 -37.30 -9.34 -40.75 -0.12 -2.24 -0.12 -2.30 1.50 -5.89 0.88 -2 2.03 -4.63 2.56 -5.83 l0.94 -2.21 -0.50 -2.95 c-0.29 -1.65 -0.62 -3.21 -0.71 -3.48 -0.15 -0.41 -1.15 0.44 -4.77 4.07 -4.07 4.04 -4.71 4.57 -5.45 4.48 -0.82 -0.09 -0.62 -0.32 4.01 -5.04 5.22 -5.33 6.36 -6.33 6.81 -5.89 0.27 0.27 1.74 7.69 1.74 8.87 0 0.35 -1.21 3.42 -2.68 6.78 l-2.68 6.10 0.80 3.68 c0.80 3.74 5.16 22.95 7.07 31.23 1.06 4.63 1.53 6.19 1.89 6.19 0.09 0 0.35 0.27 0.56 0.59 0.32 0.53 0.29 0.59 -0.44 0.56 -0.47 0 -1.03 -0.24 -1.30 -0.50z"/>
  <path d="M296.17 153.04 c-0.68 -0.74 -5.36 -13.44 -5.36 -14.47 0 -0.85 0.09 -0.97 0.74 -0.97 0.62 0 0.74 -0.15 0.74 -0.88 0 -0.77 0.09 -0.88 0.85 -0.88 0.50 0 0.91 -0.18 1.03 -0.47 0.15 -0.35 0.47 -0.44 1.44 -0.35 0.68 0.09 1.47 0.24 1.77 0.35 0.38 0.18 0.50 0.09 0.50 -0.38 0 -0.53 0.18 -0.62 1.12 -0.62 0.59 0 1.33 0.21 1.62 0.44 0.53 0.38 0.47 0.41 -0.44 0.50 -0.91 0.09 -0.77 0.21 2.12 1.68 3.48 1.77 4.13 2.24 4.13 3.03 0 0.41 1.94 1.50 8.57 4.80 4.71 2.36 8.66 4.21 8.78 4.13 0.24 -0.12 -0.21 -3.27 -1.38 -10.46 l-0.53 -3.09 -6.54 -0.09 c-6.31 -0.06 -6.54 -0.09 -6.54 -0.65 0 -0.56 0.21 -0.59 6.89 -0.59 4.21 0 6.98 0.12 7.10 0.29 0.29 0.47 2.21 12.91 2.21 14.32 l0 1.30 -1.33 0 c-1.12 0 -2.65 -0.68 -9.69 -4.18 -7.45 -3.71 -8.40 -4.27 -8.54 -4.98 -0.12 -0.65 -0.68 -1.06 -3.39 -2.45 -1.77 -0.91 -3.30 -1.65 -3.39 -1.65 -0.09 0 -0.18 0.74 -0.18 1.62 0 1.09 -0.12 1.62 -0.35 1.62 -0.21 0 0.35 0.44 1.24 0.94 0.88 0.53 1.68 1 1.77 1.12 0.38 0.41 1.92 0.88 2.98 0.88 0.91 0 2.65 0.71 7.34 3.03 6.04 2.95 6.13 3.03 6.16 3.95 0.03 0.65 -0.12 0.97 -0.47 1.09 -0.29 0.09 -3.77 0.56 -7.75 1.06 -5.16 0.65 -7.75 0.85 -9.05 0.71 -1.59 -0.15 -1.86 -0.12 -1.86 0.29 0 0.62 -1.77 0.62 -2.30 0z m1.71 -0.85 c0 -0.06 -0.91 -2.47 -2.03 -5.36 -1.09 -2.89 -2.18 -5.75 -2.36 -6.33 -0.35 -1.06 -1.09 -1.94 -1.36 -1.65 -0.09 0.09 0.71 2.45 1.77 5.27 2.98 7.84 3.12 8.22 3.57 8.22 0.24 0 0.41 -0.06 0.41 -0.15z m9.69 -1.03 c3.98 -0.50 7.57 -0.97 7.98 -1.06 0.59 -0.15 -0.35 -0.74 -5.30 -3.21 -4.92 -2.47 -6.19 -3.01 -6.95 -2.89 -0.74 0.12 -1.56 -0.21 -4.21 -1.68 -1.83 -1 -3.36 -1.77 -3.45 -1.71 -0.06 0.09 0.38 1.38 1 2.92 0.65 1.53 1.65 4.07 2.24 5.66 0.62 1.56 1.18 2.86 1.27 2.86 0.12 0 3.45 -0.41 7.43 -0.88z"/>
  <path d="M305.84 131.59 c0 -0.65 1 -0.77 6.87 -0.77 5.30 0 5.51 0.03 5.51 0.59 0 0.56 -0.21 0.59 -6.19 0.59 -5.07 0 -6.19 -0.06 -6.19 -0.41z"/>
  <path d="M322.04 131.26 c0 -0.24 0.21 -0.44 0.47 -0.44 0.44 0 0.47 -0.35 0.29 -3.39 -0.21 -3.30 -0.21 -3.39 0.38 -3.39 0.50 0 0.62 0.18 0.62 0.97 0 0.50 0.09 2.24 0.21 3.83 l0.18 2.86 -1.06 0 c-0.77 0 -1.09 -0.12 -1.09 -0.44z"/>
  <path d="M322.63 122.34 c0 -0.29 0.80 -1.30 1.77 -2.27 l1.77 -1.74 0 1 c0 0.80 -0.27 1.30 -1.24 2.27 -1.30 1.33 -2.30 1.65 -2.30 0.74z"/>
  <path d="M103.42 103.42 c0 -0.50 0.21 -0.59 1.47 -0.59 1.27 0 1.47 0.09 1.47 0.59 0 0.50 -0.21 0.59 -1.47 0.59 -1.27 0 -1.47 -0.09 -1.47 -0.59z"/>
  <path d="M111.38 103.42 c0 -0.56 0.21 -0.59 3.68 -0.59 3.48 0 3.68 0.03 3.68 0.59 0 0.56 -0.21 0.59 -3.68 0.59 -3.48 0 -3.68 -0.03 -3.68 -0.59z"/>
  <path d="M125.02 103.80 c-0.56 -0.21 -0.53 -10.58 0.03 -11.14 0.24 -0.27 1.53 -0.47 3.54 -0.62 2.68 -0.18 3.12 -0.15 3.12 0.24 0 0.53 -0.85 0.82 -2.50 0.82 -0.65 0 -1.68 0.09 -2.27 0.18 l-1.12 0.21 0 4.66 0 4.68 7.51 0 c7.31 0 7.51 0.03 7.51 0.59 0 0.59 -0.18 0.59 -7.72 0.56 -4.27 0 -7.93 -0.09 -8.10 -0.18z"/>
  <path d="M154.39 103.42 c0 -0.50 0.21 -0.59 1.33 -0.59 1.12 0 1.33 0.09 1.33 0.59 0 0.50 -0.21 0.59 -1.33 0.59 -1.12 0 -1.33 -0.09 -1.33 -0.59z"/>
  <path d="M168.83 103.42 c0 -0.56 0.21 -0.59 6.63 -0.59 6.42 0 6.63 0.03 6.63 0.59 0 0.56 -0.21 0.59 -6.63 0.59 -6.42 0 -6.63 -0.03 -6.63 -0.59z"/>
  <path d="M145.55 97.62 c0 -3.39 0.12 -6.33 0.29 -6.57 0.15 -0.27 1.03 -0.50 2.42 -0.62 3.51 -0.35 4.66 -0.32 4.66 0.18 0 0.44 -0.35 0.53 -3.98 0.94 l-2.06 0.24 -0.09 5.54 c-0.06 4.77 0 5.51 0.38 5.51 0.24 0 0.44 0.21 0.44 0.44 0 0.29 -0.32 0.44 -1.03 0.44 l-1.03 0 0 -6.10z"/>
  <path d="M165.59 96.73 c0 -3.86 0.15 -7.22 0.29 -7.45 0.18 -0.29 0.94 -0.47 2.47 -0.53 1.89 -0.12 2.24 -0.06 2.24 0.32 0 0.47 -0.71 0.68 -2.80 0.85 l-0.88 0.09 -0.09 6.42 c-0.06 5.57 0 6.39 0.38 6.39 0.24 0 0.44 0.21 0.44 0.44 0 0.29 -0.32 0.44 -1.03 0.44 l-1.03 0 0 -6.98z"/>
  <path d="M183.56 103.27 c0 -0.24 0.21 -0.44 0.44 -0.44 0.38 0 0.44 -0.97 0.44 -7.04 0 -3.89 -0.09 -7.13 -0.21 -7.19 -0.15 -0.06 -1.94 0.06 -4.07 0.27 -5.42 0.53 -5.75 0.53 -5.75 -0.12 0 -0.50 0.50 -0.59 5.13 -0.94 2.80 -0.21 5.33 -0.29 5.60 -0.21 0.41 0.18 0.47 1.09 0.47 8.16 l0 7.96 -1.03 0 c-0.71 0 -1.03 -0.15 -1.03 -0.44z"/>
  <path d="M190.34 103.27 c0 -0.24 0.21 -0.44 0.44 -0.44 0.38 0 0.44 -1.03 0.44 -7.54 l0 -7.54 -0.65 0.18 c-0.38 0.09 -0.77 0.18 -0.88 0.18 -0.15 0 -0.24 0.21 -0.24 0.44 0 0.24 -0.12 0.44 -0.29 0.44 -0.15 0 -0.29 -0.47 -0.29 -1.06 l0 -1.03 1.86 0.03 c1 0.03 3.39 -0.03 5.30 -0.15 l3.45 -0.24 0 8.60 0 8.57 -4.57 0 c-3.86 0 -4.57 -0.06 -4.57 -0.44z"/>
  <path d="M188.28 93.99 c0 -1.86 0.06 -2.06 0.59 -2.06 0.53 0 0.59 0.21 0.59 2.06 0 1.86 -0.06 2.06 -0.59 2.06 -0.53 0 -0.59 -0.21 -0.59 -2.06z"/>
  <path d="M103.42 94.64 c0 -0.50 0.47 -0.59 4.36 -0.88 5.57 -0.47 5.95 -0.44 5.95 0.09 0 0.50 -0.62 0.62 -5.69 1.03 -4.80 0.38 -4.63 0.38 -4.63 -0.24z"/>
  <path d="M120.72 94.58 c-0.12 -0.50 -0.41 -0.59 -1.65 -0.59 -1.33 0 -1.50 -0.09 -1.50 -0.59 0 -0.56 0.15 -0.62 2 -0.53 l1.97 0.09 0.09 1.12 c0.06 0.80 -0.03 1.09 -0.32 1.09 -0.24 0 -0.50 -0.27 -0.59 -0.59z"/>
  <path d="M114.03 93.70 c0 -0.53 0.21 -0.59 1.62 -0.59 1.18 0 1.62 0.12 1.62 0.41 0 0.47 -0.88 0.77 -2.27 0.77 -0.77 0 -0.97 -0.12 -0.97 -0.59z"/>
  <path d="M141.72 92.64 c0 -0.44 -0.35 -0.47 -3.15 -0.29 -1.77 0.12 -3.95 0.29 -4.86 0.38 -1.56 0.15 -1.71 0.12 -1.71 -0.41 0 -0.53 0.32 -0.59 4.36 -0.91 6.45 -0.53 6.25 -0.56 6.25 0.68 0 0.71 -0.15 1.03 -0.44 1.03 -0.24 0 -0.44 -0.21 -0.44 -0.47z"/>
  <path d="M161.76 91.16 c0 -0.27 -0.27 -0.53 -0.59 -0.62 -1.03 -0.27 -0.71 -0.97 0.44 -0.97 0.97 0 1.03 0.06 1.03 1.03 0 0.71 -0.15 1.03 -0.44 1.03 -0.24 0 -0.44 -0.21 -0.44 -0.47z"/>
  <path d="M188.28 90.31 c0 -0.82 0.12 -1.03 0.59 -1.03 0.47 0 0.59 0.21 0.59 1.03 0 0.82 -0.12 1.03 -0.59 1.03 -0.47 0 -0.59 -0.21 -0.59 -1.03z"/>
  <path d="M103.71 90.63 c0 -0.47 0.88 -0.77 2.45 -0.77 0.88 0 1.09 0.12 1.09 0.59 0 0.53 -0.21 0.59 -1.77 0.59 -1.30 0 -1.77 -0.12 -1.77 -0.41z"/>
  <path d="M153.21 90.48 c0 -0.47 0.18 -0.62 0.82 -0.62 0.47 0 2.06 -0.09 3.54 -0.18 2.36 -0.18 2.71 -0.15 2.71 0.27 0 0.53 -0.71 0.71 -4.33 0.97 -2.65 0.18 -2.74 0.15 -2.74 -0.44z"/>
  <path d="M107.54 90.34 c0 -0.50 0.74 -0.68 4.07 -0.94 2.27 -0.18 2.42 -0.15 2.42 0.38 0 0.53 -0.27 0.62 -2.42 0.77 -3.57 0.29 -4.07 0.27 -4.07 -0.21z"/>
  <path d="M114.32 89.75 c0 -0.47 0.88 -0.77 2.45 -0.77 0.88 0 1.09 0.12 1.09 0.59 0 0.53 -0.21 0.59 -1.77 0.59 -1.30 0 -1.77 -0.12 -1.77 -0.41z"/>
  <path d="M118.15 89.45 c0 -0.47 0.88 -0.77 2.30 -0.77 0.74 0 0.94 0.12 0.94 0.59 0 0.53 -0.21 0.59 -1.62 0.59 -1.18 0 -1.62 -0.12 -1.62 -0.41z"/>
  <path d="M121.69 89.13 c0 -0.50 0.65 -0.62 5.51 -1.03 4.60 -0.38 4.51 -0.38 4.51 0.24 0 0.50 -0.47 0.59 -4.33 0.88 -5.51 0.44 -5.69 0.44 -5.69 -0.09z"/>
  <path d="M170.89 88.98 c0 -0.53 0.21 -0.59 1.62 -0.59 1.18 0 1.62 0.12 1.62 0.41 0 0.47 -0.88 0.77 -2.27 0.77 -0.77 0 -0.97 -0.12 -0.97 -0.59z"/>
  <path d="M132 88.28 c0 -0.47 0.88 -0.77 2.30 -0.77 0.74 0 0.94 0.12 0.94 0.59 0 0.53 -0.21 0.59 -1.62 0.59 -1.18 0 -1.62 -0.12 -1.62 -0.41z"/>
  <path d="M135.54 87.98 c0 -0.47 0.88 -0.77 2.30 -0.77 0.74 0 0.94 0.12 0.94 0.59 0 0.53 -0.21 0.59 -1.62 0.59 -1.18 0 -1.62 -0.12 -1.62 -0.41z"/>
  <path d="M139.07 87.69 c0 -0.47 0.88 -0.77 2.30 -0.77 0.74 0 0.94 0.12 0.94 0.59 0 0.53 -0.21 0.59 -1.62 0.59 -1.18 0 -1.62 -0.12 -1.62 -0.41z"/>
  <path d="M142.61 87.36 c0 -0.50 0.62 -0.62 5.69 -1.03 4.80 -0.38 4.63 -0.38 4.63 0.24 0 0.50 -0.47 0.59 -4.33 0.88 -5.60 0.47 -5.98 0.44 -5.98 -0.09z"/>
  <path d="M153.21 86.51 c0 -0.47 0.88 -0.77 2.30 -0.77 0.74 0 0.94 0.12 0.94 0.59 0 0.53 -0.21 0.59 -1.62 0.59 -1.18 0 -1.62 -0.12 -1.62 -0.41z"/>
  <path d="M156.75 86.21 c0 -0.47 0.88 -0.77 2.30 -0.77 0.74 0 0.94 0.12 0.94 0.59 0 0.53 -0.21 0.59 -1.62 0.59 -1.18 0 -1.62 -0.12 -1.62 -0.41z"/>
  <path d="M160.29 85.89 c0 -0.47 0.77 -0.62 4.51 -0.91 2.42 -0.15 2.56 -0.15 2.56 0.41 0 0.50 -0.29 0.59 -2.42 0.74 -3.80 0.29 -4.66 0.27 -4.66 -0.24z"/>
  <path d="M167.65 85.33 c0 -0.47 0.88 -0.77 2.30 -0.77 0.74 0 0.94 0.12 0.94 0.59 0 0.53 -0.21 0.59 -1.62 0.59 -1.18 0 -1.62 -0.12 -1.62 -0.41z"/>
  <path d="M171.19 85.03 c0 -0.47 0.88 -0.77 2.45 -0.77 0.88 0 1.09 0.12 1.09 0.59 0 0.53 -0.21 0.59 -1.77 0.59 -1.30 0 -1.77 -0.12 -1.77 -0.41z"/>
  <path d="M175.02 84.71 c0 -0.53 0.56 -0.62 7.37 -1.18 3.01 -0.24 6.22 -0.53 7.16 -0.62 l1.68 -0.18 0 -20.15 c0 -19.77 0 -20.15 0.59 -20.74 0.32 -0.32 0.74 -0.59 0.88 -0.59 0.18 0 0.29 -0.91 0.29 -2.12 0 -2.47 -0.59 -3.98 -2.77 -7.13 -1 -1.47 -1.36 -2.33 -1.50 -3.54 -0.41 -3.21 0.59 -5.33 2.39 -5.13 0.71 0.09 1.21 0.74 3.95 5.27 3.39 5.57 3.54 5.98 3.54 9.99 l0 2.50 0.97 0.44 c1.12 0.53 1.50 1.77 0.53 1.77 l-0.62 0 0 19.83 0 19.86 -3.59 0.32 c-2 0.18 -7.01 0.65 -11.14 1.06 -9.05 0.88 -9.72 0.91 -9.72 0.32z m22.66 -42.78 c0 -0.32 -0.09 -0.38 -0.18 -0.15 -0.06 0.18 -0.59 0.35 -1.12 0.35 -1.21 0 -1.62 -0.59 -1.62 -2.42 0 -2.45 -0.53 -2.21 -0.65 0.29 l-0.09 2.42 1.86 0 c1.56 0 1.83 -0.09 1.80 -0.50z"/>
 </g>
 <g fill="#555555">
  <path d="M94.52 173.04 c-0.29 -0.06 -0.53 -0.24 -0.53 -0.35 0 -0.15 -0.32 -0.59 -0.71 -1 -0.91 -1 -3.74 -1.41 -4.57 -0.68 -0.29 0.27 -0.68 0.47 -0.85 0.47 -0.47 0 -6.72 -3.12 -7.78 -3.89 -0.65 -0.44 -0.77 -0.71 -0.65 -1.41 0.15 -0.71 -0.03 -1.09 -0.91 -2.12 -0.91 -1.06 -1.24 -1.27 -2.15 -1.27 -1.09 0 -1.09 -0.03 -2.95 -3.39 -2.33 -4.30 -2.68 -5.39 -2 -6.16 0.41 -0.47 0.47 -0.88 0.29 -2.36 -0.18 -1.62 -0.29 -1.89 -1.03 -2.27 -1.03 -0.50 -1.06 -1.12 -0.41 -5.01 0.85 -5.04 1 -5.42 1.89 -5.42 0.68 0 0.91 -0.24 1.62 -1.71 0.62 -1.33 0.77 -1.94 0.62 -2.74 -0.18 -1 -0.09 -1.18 2.83 -4.36 l3.01 -3.33 1.15 0.18 c1.65 0.27 4.01 -0.97 4.27 -2.21 0.21 -1.09 0.47 -1.21 4.95 -2 4.68 -0.82 4.98 -0.80 5.75 0.27 0.94 1.33 2.24 1.24 2.83 -0.15 0.24 -0.56 0.68 -1.21 1 -1.38 0.71 -0.44 0.74 -1.03 0.12 -2.56 -0.35 -0.88 -0.68 -1.21 -1.33 -1.36 -0.47 -0.12 -0.85 -0.38 -0.85 -0.62 0 -0.35 -0.88 -0.41 -5.01 -0.41 -4.24 0 -5.01 0.06 -5.01 0.44 0 0.24 -0.12 0.44 -0.27 0.44 -0.18 0 -2.47 1 -5.13 2.21 -4.89 2.24 -6.19 2.59 -6.51 1.74 -0.29 -0.80 -0.21 -1.30 0.27 -1.30 0.35 0 0.44 -0.47 0.44 -2.36 0 -1.89 -0.09 -2.36 -0.44 -2.36 -0.35 0 -0.44 -0.47 -0.44 -2.50 0 -2.03 0.09 -2.50 0.44 -2.50 0.35 0 0.44 -0.50 0.44 -2.65 0 -2.03 -0.09 -2.65 -0.38 -2.65 -0.27 0 -0.65 -0.91 -1.06 -2.42 -1.92 -7.13 -5.63 -21.54 -5.63 -21.83 0 -0.50 13.35 -18.80 14.41 -19.77 0.56 -0.53 0.85 -0.47 9.52 1.44 12.08 2.65 13.58 3.06 14.02 3.59 0.21 0.29 0.35 1.38 0.35 2.65 0 1.86 0.09 2.18 0.62 2.45 0.38 0.21 0.56 0.56 0.50 0.97 -0.06 0.53 -0.32 0.68 -1.21 0.74 -0.74 0.06 -1.18 0.27 -1.30 0.59 -0.35 0.91 -1.56 1.33 -1.56 0.53 0 -0.29 -0.38 -0.47 -1.09 -0.53 -1.24 -0.09 -1.68 -0.91 -0.82 -1.53 0.35 -0.24 0.44 -0.71 0.38 -1.71 l-0.09 -1.36 -2.50 1.03 c-1.38 0.56 -4.10 1.62 -6.04 2.36 -1.94 0.74 -3.68 1.47 -3.89 1.68 -0.24 0.24 0.29 2.45 2.21 8.96 l2.56 8.60 0.94 0 c0.65 0 0.97 0.15 1.06 0.53 0.12 0.41 0.15 0.44 0.18 0.03 0.06 -0.80 3.27 -1.27 3.27 -0.47 0 0.24 0.09 0.24 0.27 -0.06 0.38 -0.59 3.57 -0.85 3.57 -0.29 0 0.35 0.06 0.35 0.27 0 0.38 -0.59 10.02 -1.44 10.34 -0.91 0.18 0.29 0.24 0.29 0.35 0 0.18 -0.56 27.61 -2.86 27.93 -2.36 0.18 0.29 0.24 0.29 0.35 0 0.18 -0.53 3.18 -0.80 3.18 -0.27 0 0.35 0.06 0.35 0.27 0 0.41 -0.65 13.55 -1.74 13.91 -1.18 0.24 0.35 0.29 0.35 0.53 0 0.38 -0.59 10.02 -1.44 10.34 -0.91 0.18 0.29 0.24 0.29 0.35 0 0.09 -0.27 2 -0.53 6.13 -0.91 7.51 -0.68 7.31 -0.68 7.45 -0.03 0.12 0.41 0.15 0.44 0.18 0.03 0.03 -0.56 0.88 -0.85 2.59 -0.85 1.47 0 2.15 -0.24 2.15 -0.74 0 -0.21 0.29 -0.44 0.68 -0.56 0.97 -0.27 1.09 -0.24 1.09 0.29 0 0.41 0.24 0.47 1.36 0.29 0.77 -0.09 1.94 -0.18 2.65 -0.18 l1.30 0 0 -19.45 0 -19.48 -2.56 0.09 -2.59 0.09 -0.09 18.80 c-0.06 18.53 -0.06 18.77 -0.65 18.77 -0.59 0 -0.59 -0.21 -0.59 -18.86 0 -13.20 -0.09 -18.86 -0.32 -18.86 -0.62 0 -0.09 -1.33 0.68 -1.71 0.47 -0.21 0.82 -0.59 0.82 -0.82 0 -0.21 0.15 -0.41 0.29 -0.41 0.18 0 0.29 -0.38 0.29 -0.88 0 -0.47 -0.12 -0.88 -0.29 -0.88 -0.15 0 -0.35 -0.50 -0.47 -1.09 -0.24 -1.44 -1.21 -3.39 -2.89 -5.86 -1.27 -1.86 -1.80 -3.65 -1.06 -3.65 0.18 0 0.29 -0.38 0.29 -0.88 0 -0.47 -0.12 -0.88 -0.29 -0.88 -0.62 0 -0.27 -1.53 0.47 -2.21 0.94 -0.85 1.62 -0.94 2.24 -0.21 0.27 0.27 1.83 2.74 3.45 5.48 2.77 4.66 3.59 6.66 2.68 6.66 -0.18 0 -0.29 0.82 -0.29 1.92 0 1.06 0.12 1.92 0.27 1.92 0.15 0 0.35 0.38 0.47 0.88 0.12 0.59 0.38 0.88 0.74 0.88 0.29 0 0.77 0.21 1 0.47 0.41 0.38 0.47 1.50 0.47 7.78 0 6.72 -0.03 7.34 -0.50 7.45 -0.50 0.12 -0.50 0.15 0 0.18 0.68 0.03 0.77 2.68 0.06 2.68 -0.38 0 -0.44 0.65 -0.44 3.98 0 3.33 0.06 3.98 0.44 3.98 0.38 0 0.44 0.62 0.44 3.83 0 3.21 -0.06 3.83 -0.44 3.83 -0.27 0 -0.44 0.27 -0.44 0.74 0 0.47 0.18 0.74 0.44 0.74 0.35 0 0.44 0.47 0.44 2.36 l0 2.36 0.91 0 c0.65 0 0.94 -0.15 1.06 -0.59 0.09 -0.32 0.35 -0.59 0.56 -0.59 0.35 0 0.41 -2.45 0.41 -15.17 0 -13.08 0.06 -15.17 0.44 -15.17 0.24 0 0.47 0.38 0.56 0.97 0.09 0.50 0.15 12.46 0.09 26.52 l-0.06 25.60 -0.97 0.85 -0.94 0.85 -52.15 0 -52.15 0 -0.41 -0.65 c-0.24 -0.38 -1.27 -3.65 -2.33 -7.31 -1.06 -3.65 -2.80 -9.55 -3.89 -13.11 -1.06 -3.57 -2.21 -7.51 -2.56 -8.81 -0.85 -3.36 -0.97 -3.24 7.22 -6.51 3.68 -1.44 6.60 -2.71 6.45 -2.83 -0.35 -0.32 -16.53 -3.83 -17.24 -3.74 -0.59 0.09 -3.89 4.36 -11.40 14.85 l-2.36 3.30 0.62 2.30 c1.62 6.22 3.59 13.61 4.51 17.03 l1.06 3.80 0 7.48 c0 4.10 0.06 7.45 0.15 7.45 0.06 0 1.94 -0.82 4.18 -1.83 l4.07 -1.86 91.93 0 91.93 0 3.83 1.36 c2.12 0.77 4.36 1.59 4.98 1.86 0.65 0.27 1.21 0.41 1.30 0.32 0.12 -0.12 -0.44 -2.65 -1.44 -6.39 l-0.29 -1.12 -13.52 0 c-11.84 0 -13.55 -0.06 -13.55 -0.44 0 -0.35 -0.53 -0.44 -3.09 -0.44 -2.45 0 -3.09 -0.09 -3.09 -0.41 0 -0.21 0.29 -0.47 0.68 -0.59 0.35 -0.09 7.72 -0.18 16.35 -0.18 8.60 0 15.68 -0.09 15.68 -0.18 0 -0.09 -0.27 -1.18 -0.59 -2.42 -1.06 -4.18 -5.16 -21.98 -10.43 -45.14 -0.56 -2.50 -1.71 -7.72 -2.50 -11.61 -0.82 -3.86 -1.59 -7.13 -1.68 -7.28 -0.09 -0.15 -0.41 -0.27 -0.74 -0.27 -0.32 0 -0.53 0.12 -0.44 0.27 0.18 0.27 1.44 5.89 6.81 30.23 1.71 7.78 3.24 14.73 3.42 15.47 0.18 0.74 0.71 3.24 1.15 5.60 0.97 4.86 0.85 5.69 -0.74 5.83 -0.74 0.06 -17.50 -5.80 -49.91 -17.50 -1.53 -0.53 -2.98 -1.18 -3.21 -1.41 -0.50 -0.50 -0.80 -2.03 -2.42 -13.08 -0.68 -4.48 -1.74 -11.67 -2.39 -15.94 -1.36 -9.22 -1.38 -9.72 -0.44 -10.84 l0.71 -0.82 4.92 -0.09 c5.42 -0.12 6.92 0.03 6.92 0.68 0 0.38 0.94 0.44 5.89 0.44 5.04 0 5.89 -0.06 5.89 -0.44 0 -0.38 1.12 -0.44 8.34 -0.44 4.57 0 8.60 0.09 8.99 0.18 0.35 0.12 0.65 0.38 0.65 0.59 0 0.29 0.44 0.41 1.62 0.41 1.24 0 1.62 -0.09 1.62 -0.44 0 -0.35 0.44 -0.44 2.09 -0.44 1.83 0 2.06 -0.06 1.92 -0.53 -0.09 -0.27 -0.29 -1.06 -0.44 -1.77 -0.15 -0.71 -0.32 -1.33 -0.38 -1.38 -0.06 -0.06 -2.62 -0.21 -5.69 -0.29 -6.72 -0.21 -7.43 -0.29 -7.60 -0.97 -0.12 -0.47 -0.15 -0.47 -0.18 0.03 -0.03 0.47 -0.50 0.50 -5.69 0.50 -6.01 0 -7.01 -0.12 -7.01 -0.77 0 -0.24 -0.21 -0.41 -0.44 -0.41 -0.24 0 -0.44 0.21 -0.44 0.44 0 0.41 -1.41 0.44 -11.93 0.38 l-11.93 -0.09 0.06 32.71 0.09 32.71 0.80 1.71 c1.06 2.27 2.98 4.95 4.15 5.83 l0.94 0.71 9.37 0.09 c7.96 0.06 9.34 0.15 9.34 0.50 0 0.24 0.15 0.44 0.29 0.44 0.59 0 0.27 0.82 -0.35 1 -1.12 0.29 -18 0.21 -19.12 -0.12 -2 -0.56 -5.63 -5.13 -6.92 -8.78 -0.47 -1.30 -0.56 -5.36 -0.12 -5.36 0.44 0 0.38 -3.15 -0.06 -3.30 -0.29 -0.12 -0.41 -6.25 -0.47 -29.05 l-0.06 -28.93 -2.50 0 -2.50 0 0 3.48 c0 3.80 -0.18 4.77 -0.77 4.77 -0.32 0 -0.41 -0.85 -0.41 -4.42 0 -3.83 -0.06 -4.42 -0.47 -4.42 -0.29 0 -0.41 -0.21 -0.35 -0.65 0.12 -0.82 1.71 -1.18 1.71 -0.41 0 0.41 1.30 0.47 12.08 0.47 10.55 0 12.08 -0.06 12.08 -0.44 0 -0.38 0.68 -0.44 4.36 -0.44 4.68 0 5.66 0.15 5.66 0.77 0 0.32 0.53 0.41 2.21 0.41 1.77 0 2.21 -0.09 2.21 -0.44 0 -0.35 0.56 -0.44 3.18 -0.44 3.51 0 4.48 0.18 4.48 0.77 0 0.29 0.44 0.41 1.62 0.41 1.24 0 1.62 -0.09 1.62 -0.44 0 -0.35 0.44 -0.44 2.15 -0.44 2.50 0 3.45 0.21 3.45 0.77 0 0.27 0.35 0.41 1.03 0.41 0.71 0 1.03 -0.15 1.03 -0.44 0 -0.56 1.74 -0.62 2.45 -0.09 0.65 0.47 1.92 6.78 1.41 6.95 -0.18 0.06 -0.32 0.35 -0.32 0.68 0 0.50 4.21 19.71 6.33 28.85 0.41 1.71 2 8.66 3.54 15.47 1.56 6.81 4.04 17.12 5.48 22.89 1.44 5.80 2.62 10.81 2.62 11.14 0 1.09 -0.56 0.97 -7.37 -1.47 l-5.66 -2.06 -8.10 0 -8.07 0 -0.38 0.97 c-0.21 0.50 -0.47 1.33 -0.59 1.77 -0.18 0.74 -0.09 0.85 0.71 1.15 0.68 0.21 0.97 0.53 1.09 1.18 0.12 0.53 0.41 0.97 0.74 1.03 0.29 0.09 0.53 0.35 0.53 0.56 0 0.27 0.35 0.41 1.03 0.41 0.71 0 1.03 -0.15 1.03 -0.44 0 -0.24 0.21 -0.44 0.44 -0.44 0.24 0 0.62 -0.38 0.88 -0.88 0.56 -1.09 0.91 -1.09 5.33 -0.29 4.66 0.85 5.07 1.03 5.30 2.18 0.15 0.82 0.38 1.06 1.74 1.62 1.09 0.47 1.86 0.59 2.56 0.47 0.94 -0.18 1.12 -0.06 3.57 2.47 1.38 1.47 2.74 2.68 2.98 2.68 0.24 0 0.47 0.15 0.53 0.32 0.18 0.50 15.91 0.38 16.21 -0.12 0.15 -0.24 1.62 -0.38 4.80 -0.44 3.98 -0.09 4.57 -0.03 4.57 0.35 0 0.41 0.56 0.44 4.66 0.27 2.83 -0.12 4.71 -0.29 4.83 -0.50 0.12 -0.21 1.53 -0.35 3.48 -0.41 2.53 -0.09 3.24 -0.21 3.24 -0.53 0 -0.82 0.56 -0.38 0.68 0.56 0.12 0.91 0.12 0.91 0.15 -0.15 0.06 -0.80 -0.06 -1.12 -0.35 -1.12 -0.85 0 -1.09 -3.42 -0.24 -3.62 0.41 -0.12 0.44 -0.15 0.03 -0.18 -1 -0.06 -1.21 -3.45 -0.27 -4.30 0.44 -0.41 0.59 -0.44 0.59 -0.12 0 0.24 0.24 0.12 0.56 -0.32 0.32 -0.38 0.50 -0.82 0.41 -0.97 -0.24 -0.38 22.66 -23.22 23.19 -23.13 0.29 0.06 0.65 1.33 1.27 4.51 l0.82 4.42 -0.94 2.21 c-0.53 1.21 -1.74 3.98 -2.71 6.16 -1.56 3.51 -1.74 4.10 -1.59 5.30 0.18 1.38 2.24 10.78 6.57 29.64 l2.24 9.72 1.53 1.62 c2.95 3.15 2.80 2.86 3.42 6.92 0.32 2.06 0.59 3.95 0.59 4.15 0 0.21 -0.38 0.44 -0.85 0.56 -0.74 0.15 -19.42 -1.65 -21.57 -2.09 -0.88 -0.18 -2.12 -1.30 -1.44 -1.30 0.24 0 0.15 -0.29 -0.29 -0.74 -0.38 -0.41 -0.88 -0.68 -1.12 -0.59 -0.24 0.09 -1.59 -1 -3.27 -2.65 -2.53 -2.47 -2.92 -2.98 -3.09 -4.07 -0.12 -0.68 -0.47 -2.74 -0.80 -4.54 -0.59 -3.18 -0.65 -3.33 -1.36 -3.33 -0.41 0 -5.22 0.59 -10.67 1.33 -5.45 0.71 -14.53 1.92 -20.21 2.65 -5.66 0.74 -10.61 1.38 -10.96 1.47 -0.38 0.09 -1 0.82 -1.68 2 -1.21 2.21 -1.71 2.68 -2.47 2.42 -0.44 -0.12 -0.88 0.18 -1.80 1.24 -1 1.18 -1.18 1.56 -1.03 2.33 0.15 0.85 0.06 0.94 -2.15 2.24 -3.21 1.89 -5.86 3.18 -6.51 3.18 -0.29 0 -0.77 -0.24 -1.03 -0.53 -0.44 -0.50 -0.68 -0.50 -2.33 -0.21 -1.38 0.24 -1.92 0.47 -2.27 1.03 -0.27 0.41 -0.59 0.82 -0.77 0.94 -0.15 0.12 -2.39 0.24 -4.92 0.24 l-4.63 0 -0.47 -0.88 c-0.44 -0.85 -0.50 -0.88 -2.65 -0.88 -1.71 0 -2.21 0.09 -2.21 0.41 0 0.24 -0.21 0.65 -0.47 0.88 -0.38 0.38 -1.27 0.47 -5.07 0.47 -2.53 0 -4.77 -0.12 -4.95 -0.24 -0.18 -0.12 -0.47 -0.50 -0.68 -0.85 -0.29 -0.59 -0.56 -0.68 -2.33 -0.68 -1.89 0 -2.06 0.06 -2.65 0.88 l-0.68 0.88 -4.71 0 -4.71 0 -0.50 -0.88 c-0.47 -0.85 -0.59 -0.88 -2.62 -0.88 -2.03 0 -2.15 0.03 -2.50 0.82 l-0.38 0.80 -4.77 0.09 -4.77 0.06 -0.65 -0.88 c-0.62 -0.82 -0.80 -0.88 -2.68 -0.88 -1.77 0 -2.03 0.09 -2.33 0.68 -0.21 0.35 -0.50 0.74 -0.68 0.85 -0.18 0.12 -2.42 0.24 -4.95 0.24 l-4.63 0 -0.68 -0.88 c-0.59 -0.82 -0.77 -0.88 -2.59 -0.88 -1.83 0 -2 0.06 -2.59 0.88 l-0.68 0.88 -4.71 0 -4.71 0 -0.50 -0.88 c-0.47 -0.85 -0.59 -0.88 -2.62 -0.88 -2.03 0 -2.15 0.03 -2.50 0.82 l-0.38 0.80 -4.42 0.09 c-2.45 0.03 -4.68 0 -5.04 -0.06 -0.32 -0.09 -0.77 -0.50 -0.94 -0.91 -0.32 -0.68 -0.47 -0.74 -2.42 -0.74 -1.92 0 -2.09 0.06 -2.33 0.71 -0.15 0.38 -0.50 0.77 -0.77 0.88 -0.27 0.09 -2.53 0.18 -5.04 0.18 l-4.57 0 -0.50 -0.88 c-0.47 -0.85 -0.59 -0.88 -2.56 -0.88 -1.97 0 -2.09 0.03 -2.56 0.88 l-0.50 0.88 -4.71 0 -4.71 0 -0.68 -0.88 c-0.59 -0.82 -0.77 -0.88 -2.59 -0.88 -1.83 0 -2 0.06 -2.59 0.88 l-0.68 0.88 -4.48 0 c-2.47 0 -4.63 -0.12 -4.80 -0.24 -0.18 -0.12 -0.47 -0.50 -0.68 -0.85 -0.29 -0.62 -0.56 -0.68 -2.42 -0.68 -1.89 0 -2.06 0.06 -2.36 0.71 -0.18 0.38 -0.62 0.80 -0.97 0.88 -0.71 0.21 -8.34 0.18 -9.07 -0.03z m8.46 -2.74 l0.47 -0.88 3.39 0 3.39 0 0.50 0.88 0.50 0.88 3.54 0 3.54 0 0.38 -0.88 0.41 -0.88 3.36 0 3.39 0 0.50 0.88 0.50 0.88 3.59 0 3.59 0 0.38 -0.80 c0.38 -0.82 0.41 -0.82 3.71 -0.91 l3.33 -0.09 0.50 0.91 0.50 0.88 3.74 0 3.71 0 0.32 -0.88 0.29 -0.88 3.57 0 3.59 0 0.32 0.88 0.32 0.88 3.62 0 3.59 0 0.38 -0.80 c0.38 -0.82 0.41 -0.82 3.68 -0.91 l3.30 -0.09 0.65 0.91 0.68 0.88 3.62 0 c2.56 0 3.62 -0.09 3.62 -0.35 0 -0.18 0.21 -0.59 0.50 -0.88 0.41 -0.44 0.94 -0.53 3.68 -0.53 l3.21 0 0.50 0.88 0.50 0.88 3.68 0 3.71 0 0.32 -0.88 0.32 -0.88 3.59 0 3.59 0 0.32 0.88 0.32 0.88 3.62 0 3.59 0 0.38 -0.80 c0.38 -0.80 0.44 -0.82 3.33 -0.91 3.57 -0.09 4.07 0 4.51 0.97 0.32 0.74 0.38 0.74 3.95 0.74 l3.62 0 0.50 -0.88 0.50 -0.88 3.36 0 3.39 0 0.35 0.88 0.35 0.88 3.65 0 3.62 0 0.47 -0.88 0.47 -0.88 3.39 0 3.39 0 0.50 0.88 0.50 0.88 3.57 0 3.59 0 0.35 -0.88 c0.27 -0.68 0.62 -0.91 1.44 -1.06 0.59 -0.09 1.86 -0.35 2.83 -0.56 1.65 -0.38 1.80 -0.35 2.39 0.18 0.32 0.29 0.77 0.56 0.97 0.56 0.24 0 1.65 -0.68 3.18 -1.50 2.65 -1.44 2.77 -1.53 2.59 -2.33 -0.15 -0.74 0.09 -1.18 1.65 -3.09 1.71 -2.06 1.92 -2.21 2.86 -2.15 0.97 0.09 1.03 0.06 2.50 -2.77 l1.53 -2.83 -0.65 -0.71 -0.65 -0.68 0.50 -2.95 c0.44 -2.50 0.59 -2.98 1.18 -3.24 0.77 -0.35 0.80 -0.82 0.21 -3.74 -0.77 -3.68 -0.68 -3.51 -1.41 -3.30 -0.88 0.21 -1.06 -0.06 -2.45 -3.18 -1.06 -2.50 -1.09 -2.62 -0.56 -3.15 0.50 -0.59 0.44 -0.65 -1.80 -3.12 -1.62 -1.80 -2.42 -2.47 -2.74 -2.33 -1.15 0.47 -1.80 0.32 -3.86 -0.85 -1.80 -1.03 -2.24 -1.41 -2.30 -2.06 -0.06 -0.53 -0.29 -0.85 -0.74 -0.94 -2.24 -0.50 -5.07 -1.03 -5.66 -1.03 -0.44 0 -0.85 0.27 -1.06 0.68 -0.53 1 -0.80 1.09 -3.98 1.09 -3.12 0 -3.57 -0.18 -4.04 -1.53 -0.18 -0.47 -0.62 -0.53 -3.89 -0.53 -3.06 0 -3.68 0.06 -3.68 0.44 0 0.24 -0.27 0.71 -0.59 1.03 -0.50 0.50 -0.97 0.59 -3.54 0.59 -2.56 0 -3.03 -0.09 -3.54 -0.59 -0.32 -0.32 -0.59 -0.80 -0.59 -1.03 0 -0.38 -0.59 -0.44 -3.65 -0.44 l-3.65 0 -0.35 0.88 c-0.47 1.12 -0.91 1.24 -4.57 1.12 l-2.95 -0.09 -0.44 -0.94 -0.44 -0.97 -3.59 0 c-3.03 0 -3.62 0.06 -3.62 0.44 0 0.24 -0.27 0.71 -0.59 1.03 -0.50 0.50 -0.97 0.59 -3.59 0.59 -1.68 0 -3.18 -0.12 -3.39 -0.24 -0.18 -0.12 -0.47 -0.59 -0.65 -1.03 l-0.32 -0.80 -3.51 0 -3.54 0 -0.44 0.85 c-0.59 1.09 -0.94 1.21 -3.86 1.21 -2.95 0 -3.83 -0.29 -4.10 -1.30 l-0.18 -0.77 -3.62 0 -3.62 0 -0.50 1.03 -0.50 1.03 -3.21 0 c-3.39 0 -3.89 -0.18 -4.30 -1.47 -0.18 -0.56 -0.44 -0.59 -3.68 -0.59 l-3.51 0 -0.44 0.85 c-0.59 1.12 -0.91 1.21 -4.04 1.21 -2.92 0 -3.68 -0.27 -4.10 -1.36 -0.27 -0.71 -0.32 -0.71 -3.98 -0.71 -3.06 0 -3.68 0.06 -3.68 0.44 0 0.24 -0.27 0.71 -0.59 1.03 -0.47 0.47 -0.97 0.59 -2.71 0.59 -3.48 0 -4.36 -0.24 -4.71 -1.21 l-0.29 -0.85 -3.62 0 c-3.39 0 -3.65 0.03 -3.83 0.59 -0.41 1.30 -0.91 1.47 -4.13 1.47 -3.21 0 -3.71 -0.18 -4.13 -1.47 -0.18 -0.56 -0.44 -0.59 -3.86 -0.59 -3.06 0 -3.65 0.06 -3.65 0.44 0 0.24 -0.27 0.71 -0.59 1.03 -0.50 0.50 -0.97 0.59 -3.42 0.59 -3.12 0 -3.80 -0.21 -4.07 -1.33 l-0.18 -0.74 -3.68 0 -3.68 0 -0.41 1.03 -0.44 1.03 -3.24 0 -3.24 0 -0.74 -0.94 -0.74 -0.94 -3.39 0.53 -3.42 0.53 0 1 c0 0.91 -0.15 1.03 -2.27 2.15 -2.33 1.24 -3.15 1.44 -3.48 0.91 -0.38 -0.65 -1 -0.21 -3.18 2.27 -2.15 2.42 -2.24 2.56 -1.80 3.09 0.47 0.50 0.44 0.68 -0.59 2.98 -0.62 1.33 -1.21 2.62 -1.33 2.86 -0.15 0.24 -0.62 0.47 -1.12 0.53 -0.88 0.09 -0.88 0.12 -1.36 2.83 -0.68 3.62 -0.65 3.92 0.21 4.13 0.77 0.18 0.80 0.27 1.38 4.10 0.32 2.21 0.32 2.33 -0.27 2.74 -0.62 0.44 -0.62 0.44 0.91 3.54 l1.53 3.09 1.03 -0.18 c0.97 -0.15 1.12 -0.06 2.92 1.92 1.68 1.89 1.83 2.18 1.68 3.03 l-0.18 0.94 3.09 1.56 c2.95 1.44 3.09 1.50 3.39 0.94 0.38 -0.71 0.53 -0.71 3.89 -0.12 2.56 0.47 2.68 0.53 3.06 1.47 l0.41 1 3.54 0 3.51 0 0.47 -0.88z m190.07 -17.18 c0.21 -0.21 -5.24 -14.50 -6.39 -16.74 -0.56 -1.12 -0.59 -1.15 -2.27 -1.15 -0.91 0 -1.97 -0.09 -2.33 -0.18 -0.85 -0.24 -0.88 0.38 -0.09 1.94 0.44 0.88 0.77 1.18 1.33 1.18 0.38 0 0.80 0.12 0.88 0.29 0.29 0.50 1.62 7.45 1.62 8.63 0 0.88 -0.15 1.18 -0.71 1.41 -0.56 0.27 -0.80 0.71 -1.06 2.18 -0.32 1.74 -0.32 1.89 0.27 2.47 0.35 0.35 0.62 0.74 0.62 0.85 0 0.21 7.90 -0.68 8.13 -0.91z m4.83 -1.15 c0 -0.18 -1.09 -3.15 -2.42 -6.63 -1.56 -4.07 -2.65 -6.42 -2.98 -6.63 -0.29 -0.15 -0.59 -0.24 -0.68 -0.18 -0.15 0.18 4.80 13.17 5.22 13.67 0.35 0.44 0.85 0.29 0.85 -0.24z m10.73 -0.82 c3.89 -0.50 7.34 -0.97 7.60 -1.06 0.32 -0.09 -1.80 -1.30 -5.69 -3.24 -5.10 -2.56 -6.36 -3.06 -7.07 -2.92 -0.71 0.15 -1.50 -0.18 -4.39 -1.80 -1.94 -1.06 -3.59 -1.92 -3.68 -1.86 -0.09 0.09 3.21 8.66 4.27 11.11 0.35 0.82 0.35 0.82 8.96 -0.24z m17.09 -5.66 c-0.38 -2.33 -0.85 -5.78 -1.03 -7.66 -0.32 -3.27 -0.38 -3.48 -0.97 -3.48 l-0.65 0 1.09 6.87 c0.62 3.74 1.12 7.19 1.15 7.66 0 0.56 0.15 0.80 0.53 0.80 0.53 0 0.50 -0.18 -0.12 -4.18z m-1.59 3.18 c0 -0.80 -2.03 -13.14 -2.21 -13.44 -0.09 -0.18 -0.38 -0.29 -0.62 -0.29 -0.24 0 -0.41 -0.12 -0.41 -0.29 0 -0.47 -10.22 -0.38 -10.37 0.09 -0.12 0.27 -1.65 0.38 -5.92 0.50 l-5.80 0.15 3.71 1.86 c3.12 1.59 3.71 2 3.83 2.68 0.15 0.71 1.06 1.24 8.46 4.95 4.57 2.30 8.54 4.18 8.84 4.18 0.27 0.03 0.50 -0.15 0.50 -0.38z m-26.81 -10.05 c-0.29 -0.35 -0.29 -0.53 0 -0.88 0.44 -0.53 0.21 -0.91 -0.91 -1.47 -1.06 -0.56 -1.44 -0.38 -1.44 0.71 0 0.65 0.24 0.91 1.27 1.41 1.50 0.77 1.56 0.80 1.09 0.24z m-7.96 -2.24 c-0.21 -0.32 -0.41 -0.56 -0.47 -0.47 -0.21 0.21 0.21 1.09 0.50 1.09 0.18 0 0.15 -0.27 -0.03 -0.62z m-8.63 -3.71 c-0.09 -0.29 -0.15 -0.06 -0.15 0.50 0 0.56 0.06 0.80 0.15 0.53 0.06 -0.29 0.06 -0.77 0 -1.03z m13.88 0.59 c-0.29 -0.06 -0.82 -0.06 -1.18 0 -0.38 0.06 -0.15 0.12 0.50 0.12 0.65 0.03 0.94 -0.03 0.68 -0.12z m-177.70 -9.46 c0.18 -0.12 0.47 -0.59 0.65 -1.03 l0.32 -0.80 4.54 0 4.54 0 0.62 1.03 0.62 1.06 2.27 -0.09 c2.27 -0.09 2.30 -0.09 2.74 -1.03 l0.44 -0.97 4.66 0 4.63 0 0.32 0.80 c0.41 1.12 0.74 1.27 2.95 1.27 2 0 2.56 -0.29 3.01 -1.53 0.18 -0.47 0.68 -0.53 4.86 -0.53 l4.66 0 0.44 0.97 c0.41 0.94 0.41 0.94 2.86 1.03 l2.45 0.09 0.41 -1.06 0.44 -1.03 4.54 0 4.54 0 0.62 1.03 0.59 1.03 2.24 0 2.24 0 0.59 -1.03 0.62 -1.03 4.51 0 4.51 0 0.62 1.03 c0.59 1.03 0.62 1.03 2.65 1.03 2.15 0 2.74 -0.29 3.12 -1.47 0.18 -0.56 0.44 -0.59 4.83 -0.59 l4.63 0 0.44 0.97 c0.41 0.94 0.41 0.94 2.86 1.03 l2.45 0.09 0.41 -1.06 0.44 -1.03 4.54 0 4.54 0 0.62 1.03 0.59 1.03 2.24 0 2.24 0 0.59 -1.03 0.62 -1.03 4.51 0 4.51 0 0.62 1.03 c0.59 1.03 0.62 1.03 2.59 1.03 2.27 0 2.59 -0.15 3.01 -1.27 l0.32 -0.80 4.18 -0.03 c2.33 0 4.04 -0.09 3.86 -0.18 -0.59 -0.24 -0.47 -3.27 0.21 -4.71 l0.56 -1.27 -76.28 0 c-50.68 0 -76.31 0.09 -76.31 0.29 0 0.18 0.12 0.29 0.29 0.29 0.32 0 1.18 2.74 1.18 3.86 0 0.44 -0.15 0.85 -0.35 0.91 -0.27 0.09 -0.27 0.24 0.03 0.56 0.32 0.32 1.30 0.38 5.04 0.32 l4.63 -0.09 0.62 1.06 c0.62 1.03 0.65 1.03 2.62 1.03 1.09 0 2.15 -0.12 2.36 -0.24z m0.09 -20.21 c0 -0.50 0.91 -0.77 2.59 -0.77 l1.24 0 0 -4.45 c0 -4.18 -0.03 -4.45 -0.59 -4.60 -0.32 -0.09 -0.59 -0.29 -0.59 -0.50 0 -0.18 -0.12 -0.15 -0.27 0.09 -0.35 0.56 -17.47 2.03 -17.65 1.50 -0.09 -0.27 -0.18 -0.27 -0.35 0 -0.15 0.21 -0.97 0.44 -1.89 0.53 -0.91 0.06 -1.74 0.24 -1.80 0.35 -0.09 0.15 0.27 1.77 0.80 3.65 l0.94 3.42 2.50 0.03 c1.38 0.03 4.07 0.03 5.95 -0.03 3.83 -0.06 5.27 0.15 5.27 0.77 0 0.32 0.47 0.41 1.92 0.41 1.44 0 1.92 -0.09 1.92 -0.41z m22.10 0 c0 -0.41 0.85 -0.77 2 -0.77 l0.65 0 0 -5.45 c0 -4.66 -0.06 -5.45 -0.44 -5.45 -0.24 0 -0.44 -0.18 -0.44 -0.35 0 -0.27 -0.09 -0.27 -0.27 0.03 -0.38 0.59 -10.11 1.44 -10.28 0.91 -0.12 -0.29 -0.18 -0.29 -0.35 0 -0.12 0.21 -1.09 0.47 -2.09 0.56 -1.59 0.15 -1.94 0.29 -2.18 0.85 -0.15 0.35 -0.38 0.65 -0.50 0.65 -0.15 0 -0.24 1.65 -0.24 3.68 0 2.27 0.12 3.68 0.29 3.68 0.18 0 0.29 0.21 0.29 0.44 0 0.24 0.32 0.50 0.74 0.62 0.41 0.09 0.74 0.35 0.74 0.59 0 0.35 1.09 0.41 6.04 0.41 4.95 0 6.04 -0.09 6.04 -0.41z m41.25 0 c0 -0.50 0.91 -0.77 2.89 -0.77 1.15 0 1.53 -0.12 1.53 -0.44 0 -0.24 0.15 -0.44 0.29 -0.44 0.18 0 0.29 -2.27 0.29 -6.19 0 -3.92 -0.12 -6.19 -0.29 -6.19 -0.15 0 -0.29 -0.18 -0.29 -0.41 0 -0.77 -0.56 -0.82 -4.33 -0.47 -2.89 0.29 -3.74 0.27 -3.92 0 -0.18 -0.29 -0.27 -0.27 -0.35 0 -0.09 0.27 -1.27 0.47 -3.45 0.68 -2.74 0.24 -3.39 0.21 -3.59 -0.12 -0.21 -0.29 -0.32 -0.32 -0.50 -0.06 -0.12 0.18 -0.59 0.44 -1.03 0.53 -0.50 0.15 -0.85 0.47 -0.97 0.91 -0.09 0.38 -0.29 0.71 -0.44 0.71 -0.15 0 -0.27 2.39 -0.27 5.30 0 3.33 0.12 5.30 0.29 5.30 0.18 0 0.29 0.21 0.29 0.44 0 0.32 0.35 0.44 1.41 0.44 1.80 0 2.71 0.27 2.71 0.77 0 0.32 0.91 0.41 4.86 0.41 3.95 0 4.86 -0.09 4.86 -0.41z m22.30 -0.29 l0.82 -0.71 0.09 -8.28 0.09 -8.28 -0.82 0 c-0.44 0 -1.33 0.09 -1.92 0.18 l-1.12 0.21 0 8.78 0 8.81 1 0 c0.65 0 1.33 -0.27 1.86 -0.71z m-43.43 -0.47 l2.56 0 0 -6.19 0 -6.19 -1.47 0 c-0.97 0 -1.47 -0.12 -1.47 -0.35 0 -0.27 -0.09 -0.27 -0.27 0.03 -0.21 0.29 -1.80 0.53 -5.92 0.88 -5.69 0.50 -6.16 0.62 -6.19 1.74 0 0.18 -0.12 0.35 -0.29 0.35 -0.18 0 -0.29 1.68 -0.29 4.42 0 2.74 0.12 4.42 0.29 4.42 0.18 0 0.29 0.21 0.29 0.44 0 0.35 0.77 0.44 4.51 0.53 2.45 0.03 4.74 0.06 5.07 0 0.32 -0.03 1.74 -0.09 3.18 -0.09z m32.32 -0.44 c0 -0.24 0.15 -0.44 0.29 -0.44 0.18 0 0.29 -2.36 0.29 -6.48 0 -3.57 -0.12 -6.48 -0.27 -6.48 -0.15 0 -0.32 -0.27 -0.41 -0.59 -0.18 -0.68 -1.59 -0.85 -1.83 -0.21 -0.09 0.18 -0.18 1.44 -0.24 2.80 -0.06 1.77 -0.18 2.53 -0.50 2.71 -0.38 0.27 -0.38 0.32 0 0.59 0.35 0.21 0.47 1.12 0.53 4.42 l0.12 4.13 1 0 c0.71 0 1 -0.15 1 -0.44z m7.07 -7.22 l0 -7.66 -1.30 0 c-0.71 0 -1.89 0.09 -2.65 0.18 l-1.41 0.21 0.12 7.45 0.09 7.48 2.59 0 2.56 0 0 -7.66z m72.92 0.38 c-0.09 -0.80 -1.03 -5.24 -2.06 -9.96 -3.21 -14.56 -5.95 -27.11 -7.51 -34.47 -0.82 -3.89 -1.65 -7.51 -1.80 -8.01 l-0.32 -0.97 -6.51 0 c-6.87 0 -7.87 -0.12 -7.87 -0.77 0 -0.27 -0.32 -0.41 -0.88 -0.41 -0.59 0 -0.88 0.15 -0.88 0.44 0 0.38 -1.74 0.44 -13.97 0.44 -13.44 0 -14 0.03 -14.17 0.56 -0.21 0.71 5.01 35.59 5.48 36.30 0.15 0.27 8.22 3.27 19.12 7.10 1.86 0.65 3.80 1.36 4.27 1.59 1.09 0.50 11.87 4.33 14.88 5.30 1.21 0.38 4.39 1.50 7.07 2.47 2.68 0.94 4.98 1.74 5.13 1.77 0.12 0 0.15 -0.62 0.03 -1.38z m-165.15 -26.28 c0 -1.65 -0.24 -2.47 -0.62 -2.21 -0.29 0.18 -0.35 3.15 -0.06 3.45 0.47 0.50 0.68 0.12 0.68 -1.24z m90.01 -32.91 c-0.15 -1.56 -0.47 -2.27 -2.27 -5.16 -1.15 -1.86 -2.27 -3.80 -2.53 -4.30 -0.68 -1.38 -1.03 -1.21 -0.88 0.47 0.12 1.09 0.59 2.18 1.97 4.48 1 1.68 1.89 3.36 1.97 3.71 0.12 0.38 0.27 0.68 0.38 0.68 0.12 0 0.24 0.18 0.27 0.38 0.03 0.18 0.18 1.15 0.29 2.12 0.12 0.97 0.35 1.97 0.50 2.21 0.38 0.59 0.56 -2.12 0.29 -4.60z"/>
  <path d="M232.86 168.51 c-0.53 -0.09 -1.33 -0.15 -1.77 -0.09 -0.44 0.03 -1.12 -0.12 -1.53 -0.32 -0.68 -0.38 -0.71 -0.41 -0.18 -0.47 5.51 -0.35 6.66 -0.27 6.07 0.44 -0.44 0.53 -1.41 0.71 -2.59 0.44z"/>
  <path d="M120.39 168.06 c-0.15 -0.41 1.09 -0.74 1.59 -0.41 0.27 0.18 0.27 0.29 -0.03 0.47 -0.62 0.38 -1.41 0.35 -1.56 -0.06z"/>
  <path d="M135.57 168.12 c-0.50 -0.62 0.41 -0.82 3.01 -0.71 2.39 0.12 2.53 0.68 0.21 0.71 -0.88 0 -1.89 0.12 -2.24 0.21 -0.41 0.15 -0.77 0.06 -0.97 -0.21z"/>
  <path d="M167.36 168.09 c-0.38 -0.44 0.21 -0.74 1.47 -0.74 0.77 0 1.41 0.44 1.12 0.74 -0.35 0.35 -2.30 0.35 -2.59 0z"/>
  <path d="M185.63 168.12 c-0.71 -0.41 -0.71 -0.41 0.65 -0.62 1.59 -0.24 2.21 -0.03 1.68 0.62 -0.41 0.53 -1.38 0.50 -2.33 0z"/>
  <path d="M215.03 168.30 c-1.21 -0.32 -1.27 -0.38 -0.82 -0.65 0.68 -0.44 3.06 -0.35 3.71 0.15 0.62 0.47 0.65 0.44 -1.41 0.56 -0.59 0.03 -1.24 0 -1.47 -0.06z"/>
  <path d="M152.77 167.95 c-0.44 -0.18 -0.24 -0.27 0.82 -0.27 0.88 -0.03 1.36 0.09 1.24 0.27 -0.21 0.35 -1.24 0.35 -2.06 0z"/>
  <path d="M201.54 167.95 c0 -0.15 0.32 -0.29 0.71 -0.29 0.41 0 0.82 0.15 0.91 0.29 0.12 0.18 -0.21 0.29 -0.71 0.29 -0.50 0 -0.91 -0.12 -0.91 -0.29z"/>
  <path d="M247.97 167.98 c-0.27 -0.44 1.41 -0.68 2.27 -0.35 0.44 0.18 0.80 0.38 0.80 0.47 0 0.27 -2.92 0.15 -3.06 -0.12z"/>
  <path d="M95.17 166.86 c-8.66 -0.82 -14.58 -5.63 -17.77 -14.35 -0.80 -2.12 -0.88 -2.77 -0.88 -5.78 0 -3.77 0.41 -5.42 2.39 -9.28 1.94 -3.74 6.45 -7.60 10.61 -9.05 l1.97 -0.68 86.48 0 86.48 0 1.97 0.80 c7.57 3.03 12.73 10.52 12.73 18.50 0.03 3.48 -0.41 5.30 -2.06 8.78 -2 4.18 -5.95 8.04 -10.05 9.81 -3.39 1.47 -0.09 1.41 -88.33 1.38 -45.38 -0.03 -82.97 -0.09 -83.53 -0.15z m168.65 -1.65 c3.12 -0.94 5.75 -2.53 8.28 -5.07 1.94 -1.94 2.62 -2.89 3.74 -5.16 0.74 -1.53 1.53 -3.54 1.74 -4.42 2 -8.57 -4.71 -19 -13.76 -21.36 -1.47 -0.38 -4.92 -0.44 -23.84 -0.44 -15.88 0.03 -21.95 0.12 -21.57 0.32 0.88 0.53 1.68 2.59 1.68 4.45 0 1.97 -0.35 3.03 -1.38 4.13 -0.41 0.41 -0.65 0.91 -0.56 1.09 0.15 0.24 4.01 0.32 12.46 0.32 12.14 0 12.23 0 12.38 0.62 0.15 0.50 0.32 0.35 1.03 -0.97 0.47 -0.85 1.65 -2.39 2.65 -3.39 3.18 -3.21 6.54 -4.51 11.73 -4.51 4.80 0 8.66 1.41 11.58 4.30 3.30 3.18 4.63 6.33 4.86 11.28 0.24 5.54 -0.91 8.84 -4.24 12.38 -3.30 3.51 -6.39 4.74 -11.96 4.74 -4.10 0 -6.78 -0.71 -9.46 -2.47 -1.80 -1.18 -4.07 -3.54 -4.86 -5.01 -0.44 -0.85 -0.50 -0.88 -0.59 -0.24 -0.09 0.62 -0.24 0.65 -2.89 0.65 -2.15 0 -2.77 -0.09 -2.77 -0.41 0 -0.50 0.91 -0.77 2.83 -0.77 l1.47 0 -0.82 -2.42 c-0.44 -1.36 -0.82 -2.68 -0.82 -2.95 0 -0.47 -0.29 -0.53 -2.15 -0.53 -2.42 0 -3.45 -0.47 -3.45 -1.62 0 -0.97 0.24 -1.06 2.86 -1.12 1.27 -0.03 2.39 -0.18 2.50 -0.35 0.12 -0.15 0.24 -0.71 0.24 -1.18 0 -0.50 0.24 -1.80 0.56 -2.89 l0.53 -1.97 -11.96 0 c-6.57 0 -12.88 -0.15 -14 -0.29 -1.38 -0.21 -2.15 -0.21 -2.36 0 -0.38 0.38 -71.69 0.41 -71.83 0.03 -0.03 -0.18 -0.71 -0.32 -1.47 -0.35 -0.80 -0.06 -1.41 -0.24 -1.44 -0.38 0 -0.18 -0.12 -0.03 -0.27 0.35 l-0.27 0.65 -12.14 0 -12.11 0 0.18 0.68 c0.12 0.35 0.41 1.77 0.68 3.15 l0.50 2.50 2.36 0.06 c1.89 0.03 2.45 0.15 2.74 0.56 0.47 0.65 0.47 0.77 0 1.41 -0.29 0.38 -0.94 0.56 -2.74 0.68 l-2.39 0.18 -0.74 2.53 c-0.41 1.38 -0.82 2.77 -0.94 3.06 -0.18 0.38 -0.09 0.50 0.38 0.50 0.41 0 0.56 0.15 0.44 0.44 -0.12 0.27 -0.56 0.44 -1.18 0.44 -0.85 0 -1 -0.12 -1 -0.65 0 -0.53 -0.21 -0.35 -1 0.82 -2.80 4.13 -7.60 6.89 -12.02 6.89 -1.27 0 -1.71 -0.12 -1.71 -0.41 0 -0.44 0.50 -0.59 2.98 -0.91 1.97 -0.24 5.33 -1.97 7.10 -3.59 3.30 -3.09 4.95 -6.81 4.95 -11.26 0 -4.36 -1.47 -7.96 -4.48 -10.93 -1.86 -1.83 -4.95 -3.57 -7.31 -4.10 -2 -0.47 -5.86 -0.38 -7.69 0.15 -6.69 1.97 -11.17 7.84 -11.17 14.64 0 4.89 2.18 9.28 6.04 12.20 2.56 1.94 3.98 2.50 8.19 3.18 0.68 0.12 1.09 0.32 1.09 0.59 0 0.35 -0.41 0.44 -1.71 0.44 -6.57 0 -12.99 -5.48 -14.47 -12.32 -0.41 -1.94 -0.41 -5.92 -0.03 -8.04 1.03 -5.48 5.78 -10.43 11.49 -11.90 2.77 -0.74 8.31 -0.50 10.75 0.44 3.89 1.47 6.87 4.04 8.69 7.54 0.82 1.53 0.88 1.59 0.88 0.74 l0 -0.91 12.05 0 c6.66 0 12.14 -0.12 12.23 -0.24 0.09 -0.12 -0.27 -0.85 -0.74 -1.59 -1.53 -2.36 -1.44 -5.95 0.18 -7.72 l0.71 -0.77 -22.07 0 -22.07 0 -2.30 0.74 c-9.10 2.89 -15.03 13.11 -12.43 21.54 2.06 6.78 7.04 11.99 13.38 13.97 2.12 0.68 14.73 0.80 93.11 0.77 72.78 -0.03 77.28 -0.06 78.93 -0.56z m-0.71 -3.36 c3.36 -0.91 7.37 -4.24 8.96 -7.40 2.24 -4.42 2.21 -10.11 -0.06 -14.32 -1.15 -2.15 -4.01 -5.04 -6.07 -6.22 -4.42 -2.45 -10.14 -2.56 -14.58 -0.29 -3.18 1.59 -6.36 5.36 -7.57 8.99 -0.80 2.39 -0.74 6.63 0.12 9.16 2.80 8.13 10.90 12.40 19.21 10.08z m-147.03 -13.64 c1.12 0 2.12 -0.12 2.21 -0.29 0.12 -0.18 -0.62 -0.29 -2.03 -0.29 l-2.21 0 -0.12 -1.09 c-0.06 -0.62 -0.12 -0.12 -0.12 1.09 0 1.21 0.06 1.86 0.12 1.41 0.12 -0.80 0.18 -0.82 2.15 -0.82z m125.78 -0.94 c-0.03 -0.71 -0.09 -0.80 -0.18 -0.29 -0.12 0.59 -0.29 0.65 -2.09 0.65 -1.09 0 -2.18 0.15 -2.42 0.29 -0.29 0.21 0.35 0.29 2.15 0.29 l2.56 0 -0.03 -0.94z m-29.43 -8.75 c0 -0.32 -0.15 -0.68 -0.32 -0.80 -0.68 -0.41 -1.44 -2.65 -1.44 -4.24 0 -1.80 0.80 -3.89 1.68 -4.39 0.38 -0.21 -9.40 -0.29 -34.44 -0.32 l-35 0 0.59 0.59 c0.91 0.91 1.18 1.89 1.18 4.39 0 2.09 -0.09 2.42 -0.88 3.51 -0.47 0.68 -0.88 1.36 -0.88 1.53 0 0.21 11.58 0.29 34.77 0.29 34.21 0 34.77 0 34.77 -0.56z m5.42 -2.06 c0.50 -0.53 1.15 -2.39 0.94 -2.62 -0.09 -0.06 -0.32 0.29 -0.59 0.77 -0.24 0.47 -1 1.15 -1.68 1.47 l-1.21 0.59 0.85 0.15 c0.44 0.06 0.91 0.15 1 0.18 0.09 0 0.38 -0.21 0.68 -0.53z m-75.13 -0.29 c0.68 -0.77 1.06 -2.21 0.80 -3.18 -0.24 -0.82 -0.24 -0.82 -0.44 0.29 -0.12 0.59 -0.59 1.56 -1.09 2.09 -0.59 0.71 -0.77 1.06 -0.50 1.15 0.62 0.27 0.71 0.24 1.24 -0.35z m-3.95 0.06 c0 -0.38 -1.27 -1.56 -1.68 -1.56 -0.32 0 -0.32 0.18 0.06 0.88 0.27 0.53 0.68 0.88 1.03 0.88 0.32 0 0.59 -0.09 0.59 -0.21z m74.84 -0.24 c-0.41 -0.21 -0.80 -0.32 -0.88 -0.27 -0.18 0.21 0.65 0.71 1.18 0.68 0.27 0 0.15 -0.18 -0.29 -0.41z m-72.36 -1.80 c0.27 -0.24 0.47 -0.77 0.47 -1.15 0 -0.97 -0.77 -1.62 -1.92 -1.62 -1.71 0 -2.50 1.50 -1.41 2.71 0.59 0.65 2.24 0.71 2.86 0.06z m75.55 0.12 c0.50 -0.50 0.44 -1.71 -0.15 -2.36 -1 -1.12 -3.03 -0.38 -3.03 1.09 0 0.38 0.21 0.91 0.47 1.15 0.53 0.56 2.21 0.62 2.71 0.12z m1.68 -2.30 c-0.12 -0.35 -0.27 -0.56 -0.35 -0.50 -0.09 0.09 -0.06 0.44 0.06 0.80 0.12 0.35 0.27 0.56 0.35 0.50 0.09 -0.09 0.06 -0.44 -0.06 -0.80z"/>
  <path d="M128.20 163.11 c-1.03 -0.59 -1.47 -1.59 -1.50 -3.48 0 -1.36 0.15 -1.83 0.77 -2.56 0.74 -0.88 0.85 -0.91 3.12 -0.91 2.21 0 2.39 0.06 3.21 0.85 0.77 0.77 0.85 1.06 0.85 2.68 0 1.68 -0.09 1.92 -1 2.83 -0.94 0.94 -1.12 1 -2.86 1 -1.03 -0.03 -2.21 -0.21 -2.59 -0.41z m4.51 -1.68 c0.97 -1.12 0.97 -2.33 0.06 -3.42 -0.59 -0.68 -0.94 -0.82 -2.09 -0.82 -1.15 0 -1.50 0.15 -2.09 0.82 -1.56 1.80 -0.32 4.33 2.12 4.33 1.03 0 1.38 -0.15 2 -0.91z"/>
  <path d="M154.19 163.23 c-0.97 -0.41 -1.56 -1.80 -1.56 -3.83 0 -1.50 0.12 -1.92 0.74 -2.50 0.65 -0.68 0.94 -0.74 3.18 -0.74 3.30 0 3.80 0.38 3.98 2.92 0.24 3.21 -0.88 4.48 -3.98 4.42 -0.94 0 -2 -0.12 -2.36 -0.27z m4.39 -1.68 c2.18 -2.09 -0.15 -5.22 -3.15 -4.21 -1.21 0.38 -1.62 1.03 -1.62 2.45 0 2.27 3.06 3.39 4.77 1.77z"/>
  <path d="M194.43 162.70 c-0.77 -0.68 -0.91 -1.06 -1.06 -2.56 -0.12 -1.53 -0.06 -1.92 0.56 -2.80 0.71 -1.03 0.71 -1.03 3.24 -1.12 2.33 -0.09 2.59 -0.03 3.39 0.65 0.77 0.65 0.82 0.88 0.82 2.83 0 2 -0.06 2.15 -0.97 2.98 -0.85 0.77 -1.15 0.85 -3.01 0.85 -1.83 0 -2.15 -0.09 -2.98 -0.82z m4.83 -0.94 c1.56 -1.24 1.27 -3.54 -0.59 -4.30 -1.53 -0.65 -2.92 -0.32 -3.65 0.85 -1.62 2.59 1.80 5.36 4.24 3.45z"/>
  <path d="M221.31 162.67 c-0.85 -0.80 -0.91 -1 -0.91 -2.92 0 -1.74 0.09 -2.15 0.74 -2.83 0.65 -0.71 0.88 -0.77 3.21 -0.77 2.45 0 2.50 0.03 3.27 0.94 0.74 0.85 0.80 1.12 0.68 2.83 -0.12 1.71 -0.24 2 -1.06 2.74 -0.85 0.77 -1.18 0.85 -2.98 0.85 -1.83 0 -2.12 -0.09 -2.95 -0.85z m5.01 -1.18 c1.06 -1.09 1.12 -2.33 0.15 -3.48 -0.59 -0.68 -0.94 -0.82 -2.03 -0.82 -1.74 0 -2.86 0.97 -2.86 2.47 0 2.45 2.95 3.59 4.74 1.83z"/>
  <path d="M94.43 157.25 c-4.10 -1.36 -6.98 -4.57 -7.43 -8.19 -0.15 -1.33 -0.12 -1.44 0.47 -1.44 0.32 0 0.62 -0.12 0.62 -0.29 0 -0.15 -0.27 -0.29 -0.59 -0.29 -0.47 0 -0.59 -0.21 -0.59 -1.03 0 -1.86 1.15 -4.27 2.83 -5.98 6.25 -6.22 16.21 -3.06 17.83 5.63 0.80 4.45 -1.68 9.13 -5.86 11.05 -2 0.91 -5.42 1.18 -7.28 0.56z m4.83 -3.33 c2.83 -0.82 4.74 -3.45 4.74 -6.48 0 -5.30 -5.30 -8.60 -9.93 -6.22 -5.48 2.83 -4.63 11.17 1.33 12.76 1.83 0.50 2.03 0.50 3.86 -0.06z"/>
  <path d="M255.72 157.25 c-2.95 -0.82 -5.13 -2.65 -6.69 -5.60 -0.71 -1.38 -0.80 -1.83 -0.80 -4.48 0 -3.57 0.56 -4.98 2.98 -7.37 2.06 -2.06 4.13 -2.89 7.34 -2.92 2.12 -0.03 2.59 0.09 4.33 0.94 3.15 1.56 5.48 4.66 5.78 7.75 0.12 1.33 0.09 1.44 -0.50 1.44 -0.32 0 -0.62 0.15 -0.62 0.29 0 0.18 0.29 0.29 0.62 0.29 0.59 0 0.62 0.12 0.47 1.47 -0.38 3.18 -2.80 6.31 -5.98 7.69 -1.77 0.80 -5.01 1 -6.92 0.47z m5.92 -3.89 c0.80 -0.38 1.74 -1.21 2.36 -2.06 2.36 -3.30 1.09 -8.43 -2.50 -10.14 -5.60 -2.62 -11.61 2.74 -9.43 8.40 1.59 4.15 5.69 5.78 9.58 3.80z"/>
  <path d="M196.03 101.68 c-0.21 -0.35 -0.62 -0.50 -1.09 -0.47 -0.68 0.09 -0.74 0.03 -0.44 -0.50 0.18 -0.32 0.24 -0.65 0.15 -0.77 -0.09 -0.09 -0.18 0 -0.18 0.21 0 0.21 -0.12 0.29 -0.27 0.21 -0.15 -0.09 -0.24 -0.50 -0.24 -0.88 0 -0.65 0.06 -0.68 0.53 -0.38 0.35 0.21 0.56 0.68 0.56 1.24 0 0.68 0.09 0.80 0.29 0.44 0.15 -0.24 0.29 -0.29 0.29 -0.12 0 0.50 1.41 1.06 1.56 0.62 0.06 -0.18 0.18 -0.03 0.27 0.32 0.15 0.53 0.06 0.65 -0.47 0.65 -0.32 0 -0.77 -0.24 -0.97 -0.56z"/>
  <path d="M218.21 104.89 c-0.71 -0.65 -1.59 -1.89 -1.97 -2.74 -0.65 -1.44 -0.71 -1.92 -0.80 -9.22 l-0.12 -7.69 0.82 -0.65 c1.47 -1.15 -0.24 -1.68 28.85 8.66 3.42 1.21 9.25 3.27 12.96 4.57 10.46 3.68 10.75 3.80 11.08 4.63 0.41 1.12 0.32 2.62 -0.24 3.06 -0.38 0.35 -4.71 0.41 -24.87 0.50 l-24.43 0.09 -1.30 -1.21z"/>
  <path d="M104.98 88.69 c-0.82 -0.35 -1.86 -1.97 -1.86 -2.95 0 -0.41 0.47 -1.47 1.03 -2.36 0.68 -1.09 1.03 -1.97 1.03 -2.71 0 -0.88 0.12 -1.12 0.56 -1.12 0.44 0 0.59 0.29 0.74 1.53 0.21 1.38 0.12 1.62 -0.68 2.77 -1.06 1.44 -1.15 2.24 -0.32 3.06 0.82 0.82 1.24 0.74 2.27 -0.44 1.38 -1.56 2.59 -0.74 1.38 0.97 -0.91 1.30 -2.68 1.83 -4.15 1.24z"/>
 </g>
 <g fill="#000000">
  <path d="M94.08 172.60 c-0.12 -0.21 -0.38 -0.65 -0.53 -0.97 -0.21 -0.38 -0.85 -0.68 -2.15 -0.94 -1.74 -0.35 -1.92 -0.32 -2.68 0.24 l-0.85 0.62 -4.18 -2.12 c-4.18 -2.12 -4.18 -2.12 -4.04 -3.06 0.12 -0.74 -0.09 -1.21 -1.03 -2.45 -0.65 -0.85 -1.24 -1.56 -1.30 -1.56 -0.03 0 -0.41 0.12 -0.80 0.27 -0.97 0.38 -1.18 0.09 -3.39 -4.10 -2.24 -4.27 -2.30 -4.51 -1.56 -5.22 0.56 -0.50 0.56 -0.71 0.27 -2.53 -0.24 -1.44 -0.47 -2 -0.85 -2.12 -1.18 -0.38 -1.24 -0.82 -0.59 -4.77 0.88 -5.33 0.94 -5.51 1.89 -5.63 0.65 -0.09 0.97 -0.44 1.71 -1.89 0.77 -1.50 0.85 -1.92 0.59 -2.50 -0.18 -0.38 -0.32 -0.77 -0.32 -0.82 0 -0.27 5.66 -6.48 6.10 -6.75 0.27 -0.15 0.74 -0.12 1.15 0.09 0.62 0.27 1 0.18 2.47 -0.56 1.41 -0.71 1.77 -1.03 1.77 -1.59 0 -0.38 0.18 -0.82 0.38 -1 0.21 -0.18 2.36 -0.68 4.80 -1.09 l4.39 -0.77 0.77 0.91 c0.62 0.74 0.97 0.88 1.97 0.88 1.15 0 1.24 -0.06 1.24 -0.82 0 -0.59 0.27 -1.03 0.88 -1.47 0.85 -0.65 0.85 -0.65 0.44 -1.97 -0.68 -2.30 -0.38 -2.21 -7.25 -2.21 l-6.16 0 -4.86 2.21 c-2.65 1.21 -5.04 2.21 -5.27 2.21 -0.24 0 -0.56 -0.24 -0.74 -0.50 -0.15 -0.29 -0.27 -4.24 -0.27 -8.78 l-0.03 -8.25 -2.95 -11.26 c-1.65 -6.22 -2.98 -11.61 -2.98 -11.99 0 -0.47 1.62 -2.95 4.57 -7.01 2.53 -3.45 5.51 -7.54 6.60 -9.07 2.53 -3.48 3.12 -4.13 3.89 -4.13 0.50 0 16.26 3.42 20.60 4.48 1.94 0.47 2.06 0.62 2.06 3.06 0 1.80 0.09 2.24 0.62 2.74 0.91 0.85 0.62 1.62 -0.68 1.74 l-1.09 0.09 -0.09 5.22 -0.09 5.24 -0.94 1.30 c-1.15 1.53 -1.18 1.74 -0.35 2.77 0.80 1.03 1.68 0.97 2.62 -0.18 0.53 -0.62 0.94 -0.85 1.27 -0.74 0.65 0.24 0.62 0.56 -0.15 1.53 -1.36 1.74 -3.51 1.92 -4.80 0.38 -1.03 -1.21 -0.97 -2.71 0.12 -4.39 1 -1.50 1 -1.47 0.94 -6.81 l-0.03 -4.07 -1.18 0 c-1.30 0 -1.62 -0.62 -0.59 -1.18 0.44 -0.24 0.59 -0.62 0.59 -1.41 0 -2.06 -0.09 -2.06 -4.89 -0.15 -2.42 0.97 -5.24 2.06 -6.25 2.45 -1.03 0.38 -1.94 0.85 -2.03 1.06 -0.21 0.53 4.74 17.35 5.16 17.62 0.12 0.06 1.59 0 3.30 -0.15 1.71 -0.15 19.15 -1.59 38.75 -3.21 34.59 -2.86 47.38 -3.92 51.50 -4.30 l1.97 -0.18 0 -20.30 0 -20.33 0.88 -0.50 c0.85 -0.47 0.88 -0.59 0.88 -2.59 0 -2.68 -0.44 -3.92 -2.53 -7.04 -1.59 -2.39 -1.68 -2.65 -1.80 -4.66 -0.09 -1.38 0.03 -2.36 0.27 -2.86 0.44 -0.80 1.59 -1.50 2.12 -1.30 0.44 0.18 6.07 9.37 6.57 10.73 0.21 0.59 0.35 2.42 0.38 4.21 0 2.83 0.06 3.15 0.53 3.15 0.29 0 0.77 0.18 1.03 0.38 0.47 0.32 0.53 1.86 0.65 19.51 0.06 10.55 0.15 19.51 0.15 19.98 0 0.59 0.15 0.80 0.56 0.80 1.59 0 1.50 1.68 1.50 -24.34 0 -23.39 0 -23.98 0.56 -24.28 0.77 -0.38 16.53 -0.38 34.62 0 20.27 0.47 25.75 0.71 26.25 1.21 0.65 0.65 1.53 6.07 1.09 6.75 -0.27 0.44 0.09 2.45 1.89 10.52 5.24 23.66 10.55 46.49 13.41 57.93 1.44 5.80 2.56 10.70 2.47 10.84 -0.29 0.47 -0.88 0.32 -7.13 -1.94 l-6.13 -2.21 -7.90 0 -7.90 0 -0.56 1.27 c-0.85 1.86 -0.77 2.74 0.27 3.09 0.62 0.21 0.91 0.56 1.06 1.21 l0.21 0.91 2.12 0 c2 0 2.18 -0.06 2.47 -0.74 0.44 -0.94 1.62 -0.97 6.10 -0.12 3.83 0.71 4.21 0.88 4.33 1.94 0.06 0.68 0.41 0.97 1.77 1.62 1.38 0.65 1.86 0.77 2.47 0.53 1 -0.38 1.15 -0.27 3.80 2.59 l2.27 2.42 11.82 -0.03 c6.51 -0.03 16.15 -0.15 21.42 -0.24 l9.58 -0.18 -0.12 -4.54 -0.09 -4.54 12.32 -12.32 c6.81 -6.81 12.49 -12.35 12.70 -12.35 0.21 0 0.44 0.29 0.53 0.68 0.47 2 1.33 6.95 1.33 7.60 0 0.85 -0.80 2.86 -3.59 9.07 l-1.80 3.95 0.50 2.39 c0.56 2.62 2.80 12.49 6.39 28.14 l2.33 10.14 2.15 2.24 2.12 2.24 0.68 4.24 c0.35 2.36 0.59 4.30 0.53 4.36 -0.24 0.24 -22.48 -2.18 -23.01 -2.50 -0.21 -0.12 -2.12 -1.89 -4.24 -3.95 l-3.89 -3.77 -0.80 -4.57 c-0.47 -2.50 -0.91 -4.63 -1 -4.71 -0.09 -0.09 -6.63 0.71 -14.56 1.74 -7.93 1.06 -17.59 2.33 -21.48 2.83 -4.15 0.56 -7.16 1.06 -7.28 1.27 -0.15 0.21 -0.74 1.18 -1.33 2.21 -0.97 1.62 -1.21 1.83 -2.03 1.83 -1.27 0 -3.06 2.12 -3.06 3.62 0 0.97 -0.12 1.12 -2.27 2.36 -1.27 0.74 -3.18 1.77 -4.27 2.30 l-1.97 0.97 -0.74 -0.68 c-0.71 -0.68 -0.85 -0.68 -3.80 -0.12 -0.50 0.09 -0.97 0.44 -1.24 1 l-0.47 0.85 -4.83 0 c-4.86 0 -4.86 0 -5.19 -0.71 -0.38 -0.82 -1.03 -1.06 -3.12 -1.06 -1.41 0 -1.59 0.06 -2 0.88 l-0.47 0.88 -4.98 0 -5.01 0 -0.35 -0.74 c-0.41 -0.91 -1.27 -1.15 -3.30 -0.91 -1.27 0.18 -1.62 0.35 -1.89 0.94 l-0.35 0.71 -4.83 0 -4.86 0 -0.62 -0.88 c-0.59 -0.82 -0.77 -0.88 -2.50 -0.88 -1.77 0 -1.94 0.06 -2.56 0.88 l-0.65 0.88 -4.80 0 c-3.01 0 -4.80 -0.12 -4.80 -0.29 0 -0.15 -0.27 -0.56 -0.59 -0.88 -0.47 -0.47 -0.97 -0.59 -2.50 -0.59 -1.83 0 -1.92 0.03 -2.36 0.88 l-0.47 0.88 -4.98 0 c-4.86 0 -5.01 -0.03 -5.33 -0.65 -0.50 -0.97 -0.82 -1.12 -2.53 -1.12 -1.92 0 -2.42 0.21 -2.77 1.06 -0.24 0.71 -0.27 0.71 -5.10 0.71 l-4.86 0 -0.62 -0.88 c-0.59 -0.82 -0.77 -0.88 -2.45 -0.88 -1.94 0 -2.24 0.12 -2.74 1.03 -0.29 0.56 -0.68 0.59 -5.22 0.68 -4.83 0.06 -4.89 0.06 -5.24 -0.59 -0.50 -0.97 -0.82 -1.12 -2.62 -1.12 -1.74 0 -2.03 0.12 -2.53 1.03 -0.29 0.56 -0.68 0.59 -5.39 0.68 -3.30 0.06 -5.04 -0.03 -5.04 -0.24 0 -0.15 -0.27 -0.56 -0.59 -0.88 -0.44 -0.44 -0.97 -0.59 -2.27 -0.59 -1.83 0 -2.12 0.12 -2.62 1.03 -0.29 0.56 -0.68 0.59 -5.22 0.68 l-4.89 0.06 -0.47 -0.88 c-0.44 -0.85 -0.53 -0.88 -2.53 -0.88 -1.97 0 -2.09 0.03 -2.56 0.88 l-0.50 0.88 -4.77 0 c-4.66 0 -4.80 -0.03 -5.13 -0.65 -0.53 -1 -0.82 -1.12 -2.83 -1.12 -1.74 0 -1.86 0.06 -2.30 0.88 l-0.47 0.88 -4.83 0 c-3.54 0 -4.89 -0.09 -5.07 -0.35z m9.05 -2 l0.35 -0.88 3.36 0 3.33 0 0.47 0.88 0.47 0.88 3.65 0 3.65 0 0.38 -0.80 c0.38 -0.82 0.41 -0.82 3.62 -0.91 l3.24 -0.09 0.53 0.91 0.53 0.88 3.74 0 3.74 0 0.50 -0.88 0.50 -0.88 3.09 0 3.09 0 0.47 0.88 0.47 0.88 3.80 0 3.80 0 0.47 -0.88 0.47 -0.88 3.24 0 3.24 0 0.50 0.88 0.50 0.88 3.59 0 3.59 0 0.47 -0.88 0.47 -0.88 3.24 0 3.24 0 0.50 0.88 0.50 0.88 3.74 0 3.74 0 0.47 -0.88 0.47 -0.88 3.21 0 3.21 0 0.47 0.88 0.47 0.88 3.83 0 3.83 0 0.29 -0.88 0.32 -0.88 3.48 0 3.48 0 0.32 0.88 0.29 0.88 3.71 0 3.71 0 0.50 -0.88 0.50 -0.88 3.15 0 3.15 0 0.53 0.88 0.50 0.88 3.77 0 3.74 0 0.47 -0.88 0.47 -0.88 3.21 0 3.21 0 0.47 0.88 0.47 0.88 3.77 0 3.80 0 0.32 -0.88 0.29 -0.88 3.39 0 3.39 0 0.47 0.88 0.47 0.88 3.65 0 3.65 0 0.47 -0.88 c0.27 -0.47 0.50 -0.88 0.53 -0.88 0.03 0 1.27 -0.27 2.71 -0.56 2.59 -0.53 2.65 -0.53 3.27 0 0.32 0.32 0.80 0.56 1.03 0.56 0.24 0 1.68 -0.71 3.21 -1.56 2.74 -1.50 2.80 -1.56 2.71 -2.53 -0.06 -0.77 0.12 -1.24 0.77 -1.92 0.47 -0.50 1.24 -1.41 1.68 -2.03 0.77 -1.03 0.94 -1.12 1.80 -0.94 0.88 0.15 1.03 0.06 1.68 -0.94 0.97 -1.56 2.56 -4.71 2.56 -5.13 0 -0.18 -0.27 -0.53 -0.59 -0.80 -0.59 -0.50 -0.59 -0.56 -0.15 -3.15 0.38 -2.21 0.59 -2.77 1.24 -3.30 l0.80 -0.65 -0.50 -2.77 c-0.68 -3.83 -0.91 -4.39 -1.77 -4.18 -0.62 0.18 -0.80 -0.06 -1.94 -2.47 -1.24 -2.59 -1.27 -2.71 -0.80 -3.45 0.50 -0.74 0.47 -0.77 -0.97 -2.42 -0.80 -0.91 -1.92 -2.12 -2.50 -2.68 -0.94 -0.94 -1.09 -0.97 -1.89 -0.65 -0.82 0.35 -1.06 0.27 -3.12 -0.85 -2 -1.09 -2.24 -1.33 -2.24 -2.09 0 -0.65 -0.15 -0.88 -0.65 -0.97 -6.13 -1.30 -6.72 -1.33 -7.37 -0.18 l-0.50 0.88 -3.12 0 -3.09 0 -0.50 -1.03 -0.50 -1.03 -3.77 0 -3.77 0 -0.32 0.80 c-0.18 0.44 -0.47 0.91 -0.65 1.03 -0.21 0.12 -1.65 0.24 -3.24 0.24 l-2.89 0 -0.59 -1.03 -0.62 -1.03 -3.62 0 -3.62 0 -0.62 1.03 -0.59 1.03 -3.12 0 -3.12 0 -0.59 -1.03 -0.62 -1.03 -3.65 0 -3.65 0 -0.41 1.03 -0.44 1.06 -3.33 -0.09 -3.33 -0.09 -0.41 -0.94 -0.44 -0.97 -3.74 0 c-3.51 0 -3.77 0.03 -3.95 0.59 -0.41 1.27 -0.94 1.47 -4.01 1.47 l-2.95 0 -0.59 -1.03 -0.62 -1.03 -3.62 0 -3.62 0 -0.62 1.03 -0.59 1.03 -3.12 0 -3.12 0 -0.59 -1.03 -0.62 -1.03 -3.65 0 -3.65 0 -0.41 1.03 -0.44 1.06 -3.33 -0.09 -3.33 -0.09 -0.41 -0.94 -0.44 -0.97 -3.77 0 c-3.33 0 -3.80 0.06 -3.98 0.53 -0.47 1.36 -0.94 1.53 -3.89 1.53 -1.56 0 -2.98 -0.12 -3.18 -0.24 -0.18 -0.12 -0.47 -0.59 -0.65 -1.03 l-0.32 -0.80 -3.74 0 -3.77 0 -0.44 0.97 -0.44 0.94 -3.18 0.09 -3.15 0.09 -0.62 -1.06 -0.62 -1.03 -3.65 0 -3.65 0 -0.32 0.80 c-0.18 0.44 -0.47 0.91 -0.65 1.03 -0.21 0.12 -1.65 0.24 -3.24 0.24 l-2.89 0 -0.59 -1.03 -0.62 -1.06 -3.71 0.09 -3.68 0.09 -0.50 0.88 -0.50 0.88 -3.15 0.09 -3.15 0.09 -0.50 -0.91 c-0.59 -1.03 -0.77 -1.06 -4.92 -0.35 l-2.95 0.50 -0.15 1.03 c-0.12 0.91 -0.35 1.15 -2.21 2.15 -1.94 1.03 -2.59 1.15 -3.71 0.68 -0.35 -0.15 -1.12 0.53 -2.89 2.45 -2.42 2.65 -2.42 2.65 -1.92 3.42 0.32 0.50 0.38 0.85 0.18 1.12 -0.15 0.18 -0.74 1.38 -1.24 2.65 -0.91 2.15 -1 2.27 -1.92 2.27 l-0.94 0 -0.47 2.95 c-0.68 3.89 -0.65 4.42 0.09 4.42 0.74 0 1.03 0.68 1.47 3.62 0.32 2.18 0.29 2.36 -0.24 2.95 l-0.59 0.65 1.65 3.24 c1.18 2.27 1.83 3.21 2.12 3.12 1.53 -0.38 1.62 -0.35 3.33 1.65 1.50 1.77 1.65 2.09 1.50 2.92 l-0.18 0.97 3.30 1.65 3.27 1.65 0.53 -0.65 0.53 -0.68 2.77 0.59 c2.62 0.53 2.80 0.62 3.18 1.53 l0.44 0.94 3.74 0 3.74 0 0.35 -0.88z m253.86 -1.09 c-0.09 -0.47 -0.24 -1.41 -0.32 -2.15 -0.38 -2.77 -0.50 -3.06 -2.62 -5.27 l-2.12 -2.24 -2.30 -10.02 c-5.16 -22.51 -6.98 -30.97 -6.87 -31.53 0.09 -0.32 1.30 -3.21 2.68 -6.39 1.53 -3.54 2.53 -6.16 2.53 -6.78 0 -0.85 -0.18 -1.80 -0.77 -4.36 -0.15 -0.68 -1.21 0.32 -11.34 10.61 l-11.17 11.31 0 1.41 c0 2.95 0.91 14.08 1.47 17.86 0.88 5.89 3.18 18.89 3.45 19.33 0.21 0.32 1.62 1.71 6.51 6.19 l0.97 0.91 8.75 0.91 c4.80 0.53 9.31 0.94 10.02 0.97 1.24 0.03 1.27 0 1.12 -0.77z m-69.09 -13.49 c4.07 -0.56 26.28 -3.45 35.47 -4.63 2.30 -0.29 2.74 -0.41 2.47 -0.65 -0.21 -0.21 -5.04 0.32 -11.90 1.27 -12.38 1.74 -17.15 2.24 -17.68 1.80 -0.59 -0.47 -0.77 -0.91 -3.86 -9.07 -2.50 -6.69 -2.86 -8.19 -2 -8.52 0.56 -0.21 5.22 2 9.22 4.39 1.56 0.94 3.06 1.71 3.36 1.71 0.65 0 1.77 -1.80 1.38 -2.18 -0.15 -0.15 -2.21 -1.27 -4.60 -2.50 -2.39 -1.24 -4.48 -2.47 -4.66 -2.74 -0.74 -1.21 -0.27 -1.27 14.41 -1.36 12.32 -0.06 14 -0.12 14 -0.53 0 -0.38 -1.80 -0.41 -16.12 -0.27 -19.98 0.21 -25.43 0.32 -25.63 0.56 -0.12 0.09 0.80 0.18 2 0.18 1.21 0 2.47 0.09 2.86 0.18 1.06 0.29 1.59 1.47 6.72 15.23 0.71 1.92 1.30 3.92 1.30 4.48 0 1.24 -0.47 1.41 -5.98 2.18 -2.24 0.32 -4.15 0.65 -4.24 0.74 -0.27 0.24 0.03 0.24 3.48 -0.27z m1.59 -2.18 c3.51 -0.47 3.54 -0.50 3.48 -1.27 -0.06 -0.80 -5.04 -14 -6.04 -16 -0.35 -0.65 -0.77 -1.27 -0.94 -1.38 -0.50 -0.32 -4.89 -0.29 -4.89 0.06 0 0.15 0.29 0.88 0.65 1.62 0.53 1.09 0.80 1.33 1.47 1.33 0.94 0 1.06 0.29 2 5.75 0.53 2.95 0.59 3.77 0.29 4.13 -0.21 0.24 -0.56 0.44 -0.77 0.44 -0.24 0 -0.47 0.29 -0.53 0.68 -0.71 3.24 -0.71 3.42 -0.15 3.92 0.32 0.27 0.56 0.68 0.56 0.91 0 0.47 0.41 0.47 4.86 -0.18z m8.54 -1.47 c0.09 -0.15 -0.77 -2.65 -1.86 -5.54 -1.12 -2.89 -2.24 -5.86 -2.53 -6.60 -0.32 -0.88 -0.74 -1.47 -1.27 -1.71 -0.41 -0.18 -0.80 -0.29 -0.82 -0.27 -0.12 0.12 4.63 12.82 5.13 13.73 0.35 0.68 1.03 0.85 1.36 0.38z m10.43 -1.06 c4.45 -0.56 8.13 -1.03 8.22 -1.03 0.71 0 -1.09 -1.03 -6.28 -3.62 -4.95 -2.47 -6.36 -3.06 -7.10 -2.95 -0.74 0.12 -1.65 -0.24 -4.42 -1.80 -1.94 -1.06 -3.54 -1.80 -3.59 -1.65 -0.09 0.27 3.74 10.31 4.39 11.55 0.15 0.29 0.38 0.53 0.50 0.53 0.12 0 3.83 -0.47 8.28 -1.03z m11.79 -1.74 c-0.41 -0.41 -13.91 -6.98 -14.02 -6.84 -0.09 0.09 2.95 1.68 6.72 3.54 6.01 2.95 7.81 3.77 7.31 3.30z m4.04 -1.12 c-0.09 -0.38 -0.56 -3.33 -1.06 -6.57 -0.50 -3.24 -1 -6.13 -1.06 -6.39 -0.15 -0.50 -0.97 -0.53 -11.76 -0.53 -6.39 0 -11.67 0.12 -11.76 0.24 -0.09 0.15 1.06 0.82 2.56 1.56 4.04 1.92 4.92 2.53 4.92 3.30 0 0.56 1.12 1.21 8.34 4.83 8.40 4.21 10.08 4.83 9.81 3.57z m-241.90 -31.53 l4.10 -1.86 92.08 0 92.08 0 4.98 1.83 c2.77 1 5.07 1.77 5.13 1.71 0.09 -0.06 -0.29 -1.89 -0.85 -4.04 l-1 -3.92 -30.50 0.12 c-27.49 0.09 -30.58 0.06 -31.41 -0.35 -1.59 -0.82 -3.86 -3.62 -5.33 -6.60 l-1.41 -2.83 -0.09 -32.97 -0.09 -32.94 -2.77 0 -2.80 0 -0.06 34.21 -0.09 34.21 -0.82 0.71 -0.85 0.71 -7.40 -0.06 -7.43 -0.09 0 -8.75 c0 -7.40 0.06 -8.84 0.44 -9.19 0.32 -0.32 2.21 -0.62 7.04 -1.06 3.59 -0.32 6.75 -0.59 6.98 -0.59 0.24 0 0.41 -0.29 0.41 -0.74 0 -0.41 -0.18 -0.74 -0.35 -0.74 -0.21 0 -4.04 0.32 -8.49 0.74 -4.45 0.38 -11.49 1 -15.62 1.33 -4.13 0.32 -8.96 0.74 -10.75 0.88 -3.24 0.29 -16.44 1.38 -26.52 2.21 -2.92 0.24 -7.69 0.62 -10.61 0.88 -2.92 0.24 -8.60 0.71 -12.67 1.03 -20.92 1.74 -21.36 1.80 -21.36 2.18 0.03 1.06 0.24 1.06 12.52 0.03 6.63 -0.56 12.32 -0.94 12.61 -0.85 0.29 0.09 0.65 0.50 0.82 0.91 0.35 0.97 0.35 10.58 -0.03 11.31 -0.29 0.53 -0.74 0.56 -12.08 0.56 -11.02 0 -11.79 -0.03 -12.05 -0.53 -0.15 -0.29 -1.36 -4.15 -2.65 -8.60 -1.30 -4.45 -3.30 -11.23 -4.45 -15.03 -1.12 -3.80 -2.06 -7.19 -2.06 -7.54 0 -0.32 0.27 -0.85 0.56 -1.12 0.29 -0.29 3.59 -1.71 7.28 -3.15 6.81 -2.71 7.10 -2.83 6.87 -3.03 -0.21 -0.21 -17.41 -4.01 -18.06 -4.01 -0.47 0 -1.77 1.59 -5.04 6.10 -8.13 11.17 -8.69 11.99 -8.69 12.70 0 0.65 1.56 6.78 4.45 17.33 l1.44 5.33 0 7.72 c0 4.21 0.12 7.69 0.27 7.69 0.15 0 2.09 -0.82 4.33 -1.83z m196 -8.04 c0.06 -0.06 -0.18 -1.12 -0.50 -2.39 -0.53 -2.12 -1.30 -5.45 -5.63 -24.28 -2.30 -9.96 -5.42 -23.90 -7.31 -32.41 l-1.71 -7.81 -0.82 -0.09 c-0.77 -0.09 -0.82 -0.03 -0.68 0.59 0.12 0.38 1.50 6.78 3.12 14.23 1.62 7.45 3.51 15.94 4.15 18.86 1.53 6.81 4.30 19.65 4.57 21.30 0.24 1.50 -0.15 2.12 -1.33 2.12 -0.44 0 -3.45 -0.94 -6.66 -2.09 -3.24 -1.15 -9.52 -3.39 -13.97 -4.98 -12.20 -4.33 -28.52 -10.17 -30.44 -10.90 -0.91 -0.35 -1.80 -0.85 -1.94 -1.12 -0.44 -0.82 -5.19 -32 -5.54 -36.36 -0.18 -2.15 -0.15 -2.27 0.59 -3.01 l0.77 -0.77 9.96 0.03 c5.48 0 16.38 0.12 24.25 0.24 7.87 0.15 14.38 0.15 14.47 0.06 0.09 -0.09 -0.03 -1.03 -0.29 -2.09 l-0.47 -1.92 -3.83 -0.21 c-6.63 -0.35 -29.11 -0.82 -38.54 -0.82 l-9.07 0 0.09 32.65 0.09 32.62 0.68 1.62 c1.12 2.65 3.24 5.57 4.71 6.51 l1.30 0.82 29.97 -0.18 c16.47 -0.09 29.97 -0.21 30.02 -0.24z m-157.43 -10.46 l0 -4.57 -1.33 -0.09 c-1.59 -0.09 -21.80 1.59 -22.04 1.86 -0.18 0.15 0.41 2.74 1.44 6.42 l0.29 1.09 10.81 -0.06 10.81 -0.09 0 -4.57z m70.51 -3.01 l-0.09 -7.75 -0.85 0.06 c-0.47 0.03 -0.97 0.24 -1.12 0.44 -0.27 0.44 -0.32 14.50 -0.03 14.76 0.09 0.12 0.62 0.21 1.18 0.21 l0.97 0 -0.06 -7.72z m7.43 -0.27 l0 -8.01 -2.65 0.18 c-1.44 0.09 -2.77 0.24 -2.95 0.35 -0.32 0.21 -0.44 14.94 -0.09 15.26 0.09 0.12 1.41 0.21 2.95 0.21 l2.74 0 0 -7.98z m72.92 0.85 c-0.12 -0.71 -0.71 -3.65 -1.36 -6.57 -2.06 -9.22 -4.92 -22.27 -7.63 -34.89 -1.44 -6.72 -2.74 -12.32 -2.86 -12.43 -0.15 -0.15 -10.14 -0.32 -22.22 -0.44 -21.98 -0.21 -22.01 -0.21 -22.33 0.38 -0.24 0.47 -0.15 1.77 0.41 5.42 0.38 2.65 1.33 8.96 2.06 13.97 1.86 12.32 2.68 17.24 3.01 17.56 0.18 0.18 5.13 2 11.02 4.13 5.89 2.09 11.26 4.01 11.90 4.27 0.65 0.24 5.30 1.92 10.31 3.71 5.04 1.77 10.93 3.89 13.11 4.66 2.18 0.80 4.15 1.44 4.36 1.44 0.32 0.03 0.35 -0.27 0.21 -1.21z m-73.57 -13.67 l0.65 -0.12 -0.06 -19.53 -0.09 -19.51 -2.80 0 -2.80 0 -0.09 17.09 c-0.06 9.40 0 18.33 0.09 19.80 l0.21 2.74 2.09 -0.18 c1.18 -0.09 2.42 -0.21 2.80 -0.29z m-91.57 -13.47 c0 -1.21 -0.09 -2.27 -0.18 -2.36 -0.12 -0.09 -0.44 -0.06 -0.74 0.12 -0.47 0.24 -0.56 0.62 -0.56 2.15 0 2 0.12 2.24 0.94 2.24 0.47 0 0.53 -0.27 0.53 -2.15z m90.10 -30.67 l-0.12 -3.36 -2.62 -4.39 c-3.27 -5.45 -3.12 -5.27 -3.48 -4.66 -0.53 0.94 0.09 3.27 1.47 5.51 2.36 3.77 2.74 4.80 2.74 7.48 0 1.30 0.09 2.47 0.21 2.56 0.09 0.12 0.59 0.21 1.06 0.21 l0.88 0 -0.15 -3.36z"/>
  <path d="M96.50 166.47 c-4.60 -0.21 -5.89 -0.50 -8.69 -1.92 -3.77 -1.92 -6.60 -4.71 -8.66 -8.69 -1.68 -3.21 -2.30 -5.63 -2.30 -9.13 -0.03 -2.71 0.09 -3.42 0.85 -5.69 0.50 -1.41 1.36 -3.33 1.89 -4.21 2.18 -3.65 6.33 -6.95 10.37 -8.22 l2.30 -0.74 85.36 0 c94.76 0 86.77 -0.18 90.93 1.97 2.83 1.47 6.45 5.10 7.90 7.90 1.71 3.30 2.42 6.04 2.42 9.28 0.03 3.54 -0.41 5.33 -2.12 8.84 -2.36 4.83 -6.87 8.69 -12.02 10.22 -1.65 0.50 -6.01 0.53 -82.91 0.56 -44.64 0 -83.03 -0.09 -85.30 -0.18z m5.19 -4.30 c2.68 -0.80 4.45 -1.89 6.63 -4.07 3.18 -3.18 4.51 -6.36 4.54 -10.78 0 -5.22 -2.53 -9.99 -6.72 -12.76 -2.83 -1.86 -5.01 -2.59 -8.16 -2.77 -4.63 -0.27 -8.54 1.24 -11.82 4.51 -8.31 8.28 -4.71 22.13 6.66 25.78 2.12 0.71 6.66 0.74 8.87 0.09z m31.08 -0.53 c1.30 -1.30 1.36 -2.53 0.15 -3.74 -0.74 -0.71 -1.12 -0.85 -2.33 -0.85 -1.30 0 -1.59 0.12 -2.24 0.91 -1.68 1.97 -0.29 4.66 2.45 4.68 0.74 0 1.24 -0.27 1.97 -1z m25.49 0.50 c1.06 -0.62 1.56 -1.86 1.33 -3.18 -0.27 -1.36 -1.15 -1.92 -3.06 -1.92 -1.89 0 -3.01 0.88 -3.01 2.36 0 2.62 2.47 4.07 4.74 2.74z m41.28 -0.35 c0.80 -0.71 0.97 -1.06 0.97 -2.09 0 -1 -0.18 -1.38 -0.85 -1.97 -0.71 -0.59 -1.09 -0.68 -2.47 -0.62 -1.53 0.09 -1.71 0.18 -2.36 1.12 -1.94 2.89 2.06 5.92 4.71 3.57z m26.75 0.06 c1.30 -1.18 1.47 -2.65 0.44 -3.86 -0.71 -0.85 -0.94 -0.94 -2.39 -0.94 -2.06 0 -3.06 0.91 -3.06 2.71 0 2.56 3.06 3.83 5.01 2.09z m36.42 0.38 c5.22 -1.38 9.75 -6.19 11.02 -11.64 0.47 -2 0.24 -6.13 -0.44 -8.13 -2.65 -7.75 -10.70 -12.17 -18.68 -10.31 -5.89 1.38 -10.67 6.78 -11.58 12.96 -1.03 7.16 3.71 14.53 10.78 16.82 2.47 0.80 6.51 0.94 8.90 0.29z m-20.07 -7.16 c-0.71 -1.71 -1.33 -3.71 -1.50 -4.77 l-0.21 -1.21 -2.39 0 c-2.50 0 -3.12 -0.24 -3.12 -1.24 0 -0.74 1.15 -1.12 3.39 -1.12 l1.86 0 0.35 -2.12 c0.21 -1.18 0.56 -2.65 0.77 -3.27 0.29 -0.85 0.32 -1.15 0.03 -1.24 -0.21 -0.09 -5.78 -0.18 -12.43 -0.21 l-12.08 -0.09 -0.09 -1.15 c-0.09 -0.88 0.06 -1.30 0.65 -1.92 1.44 -1.53 1.71 -3.21 0.77 -5.27 -0.68 -1.53 -2.15 -2.27 -3.80 -1.97 -1.56 0.29 -2.27 0.85 -2.83 2.33 -0.62 1.59 -0.44 2.92 0.56 4.39 0.91 1.33 1.15 2.15 0.94 3.03 l-0.18 0.71 -35.65 0 -35.65 0 0 -1.18 c0 -0.85 0.27 -1.53 0.88 -2.42 1.03 -1.41 1.21 -3.48 0.38 -5.16 -1.12 -2.39 -4.89 -2.47 -6.33 -0.15 -0.97 1.59 -0.88 3.45 0.32 5.30 0.68 1.09 0.91 1.77 0.85 2.47 l-0.09 0.97 -12.14 0.09 c-6.69 0.03 -12.17 0.18 -12.17 0.32 0 0.12 0.27 1.27 0.59 2.53 0.32 1.27 0.59 2.68 0.59 3.15 0 0.82 0 0.82 2 0.82 2.39 0 3.21 0.21 3.45 0.82 0.32 0.88 -0.65 1.38 -3.03 1.47 l-2.30 0.12 -0.38 1.80 c-0.21 1 -0.62 2.42 -0.94 3.12 -0.29 0.71 -0.56 1.33 -0.56 1.38 0 0.06 29.17 0.12 64.85 0.12 61.64 0 64.85 -0.03 64.64 -0.50z"/>
  <path d="M94.08 156.93 c-2.71 -0.88 -4.92 -2.92 -6.22 -5.75 -0.65 -1.36 -0.77 -2.06 -0.77 -4.04 0 -2.09 0.12 -2.65 0.94 -4.33 1.12 -2.24 2.71 -3.80 5.04 -4.89 1.38 -0.65 2.06 -0.77 4.30 -0.77 2.30 0 2.86 0.12 4.33 0.82 3.54 1.74 5.66 5.27 5.66 9.49 0.03 2 -0.12 2.62 -0.80 4.04 -1.03 2.12 -2.89 4.04 -4.77 4.95 -1.80 0.85 -5.78 1.12 -7.72 0.47z m7.37 -2.33 c2.65 -1.56 4.13 -4.15 4.13 -7.28 0 -7.69 -9.05 -11.23 -14.44 -5.66 -1.59 1.62 -2.30 3.77 -2.09 6.39 0.18 2.09 0.77 3.39 2.27 4.95 1.89 2 3.42 2.59 6.54 2.45 1.80 -0.06 2.50 -0.24 3.59 -0.85z"/>
  <path d="M255.10 156.78 c-3.21 -1.30 -5.33 -3.42 -6.28 -6.25 -0.71 -2.06 -0.50 -6.13 0.35 -7.78 1.09 -2.06 2.65 -3.59 4.74 -4.63 1.74 -0.85 2.24 -0.97 4.48 -0.97 2.24 0 2.71 0.09 4.48 0.97 5.63 2.77 7.45 9.78 3.92 14.97 -1.12 1.59 -1.94 2.33 -3.98 3.36 -1.86 0.97 -5.75 1.12 -7.72 0.32z m7.04 -2.03 c1.65 -0.85 3.09 -2.33 3.92 -4.01 0.53 -1.15 0.62 -1.74 0.53 -3.65 -0.12 -2.65 -0.74 -4.10 -2.39 -5.75 -1.62 -1.62 -3.39 -2.33 -5.78 -2.33 -2.42 0 -3.77 0.56 -5.66 2.33 -5.60 5.24 -1.65 14.50 6.07 14.11 1.38 -0.06 2.47 -0.29 3.30 -0.71z"/>
  <path d="M124.25 104.66 c-0.15 -0.21 -0.29 -6.42 -0.24 -10.28 0.03 -1.77 0.12 -2.18 0.59 -2.42 0.59 -0.32 13.47 -1.50 16.41 -1.50 1.53 0 1.92 0.09 2.18 0.56 0.32 0.62 0.44 12.61 0.12 13.41 -0.15 0.41 -1.27 0.47 -9.55 0.47 -5.19 0 -9.46 -0.09 -9.52 -0.24z m17.71 -7.07 c0.06 -4.83 0.03 -5.39 -0.44 -5.57 -0.53 -0.21 -15.23 0.94 -15.70 1.24 -0.18 0.12 -0.29 2.09 -0.29 5.04 l0 4.83 8.19 -0.06 8.16 -0.09 0.09 -5.39z"/>
  <path d="M145.17 104.69 c-0.12 -0.09 -0.21 -3.27 -0.21 -7.04 0 -6.87 0 -6.89 0.68 -7.34 0.47 -0.29 2.77 -0.62 7.75 -1.03 9.37 -0.80 9.49 -0.77 9.84 0.18 0.41 1.03 0.38 14.14 0 14.88 -0.29 0.53 -0.71 0.56 -9.10 0.56 -4.83 0 -8.87 -0.09 -8.96 -0.21z m16.79 -7.75 c0.06 -3.33 -0.03 -6.22 -0.15 -6.42 -0.21 -0.32 -1.62 -0.27 -7.57 0.24 -4.01 0.32 -7.43 0.68 -7.54 0.77 -0.15 0.09 -0.27 2.74 -0.27 5.89 l0 5.72 7.75 -0.06 7.72 -0.09 0.06 -6.04z"/>
  <path d="M165 97.20 c0 -4.60 0.12 -7.90 0.29 -8.22 0.18 -0.32 0.74 -0.65 1.27 -0.74 2.18 -0.35 18.30 -1.62 18.80 -1.47 0.29 0.12 0.62 0.47 0.71 0.82 0.09 0.35 0.12 4.36 0.09 8.90 l-0.09 8.25 -10.52 0.09 -10.55 0.06 0 -7.69z m19.74 -1.41 c0 -5.60 -0.09 -7.37 -0.35 -7.45 -0.21 -0.09 -1.44 -0.03 -2.74 0.09 -1.30 0.12 -5.07 0.47 -8.40 0.74 -3.33 0.27 -6.22 0.62 -6.39 0.77 -0.29 0.24 -0.38 1.94 -0.38 6.75 l0 6.45 9.13 0 9.13 0 0 -7.34z"/>
 </g>
</svg>